<svg width="20" height="20" viewBox="0 0 20 20" fill="none" xmlns="http://www.w3.org/2000/svg">
<path d="M20 10.375C20 12.7873 18.037 14.75 15.625 14.75H12.5C12.1545 14.75 11.875 14.4702 11.875 14.125C11.875 13.7798 12.1545 13.5 12.5 13.5H15.625C17.348 13.5 18.75 12.098 18.75 10.375C18.75 8.65203 17.348 7.25 15.625 7.25H15C14.6545 7.25 14.375 6.97016 14.375 6.625C14.375 4.21266 12.412 2.25 10 2.25C7.58797 2.25 5.625 4.21266 5.625 6.625C5.625 6.97016 5.34547 7.25 5 7.25H4.375C2.65203 7.25 1.25 8.65203 1.25 10.375C1.25 12.098 2.65203 13.5 4.375 13.5H7.5C7.84547 13.5 8.125 13.7798 8.125 14.125C8.125 14.4702 7.84547 14.75 7.5 14.75H4.375C1.96297 14.75 0 12.7873 0 10.375C0 7.96266 1.96297 6 4.375 6H4.40984C4.72172 3.19141 7.10938 1 10 1C12.8906 1 15.2783 3.19141 15.5902 6H15.625C18.0372 6 20 7.96266 20 10.375ZM12.0581 16.1831L10.625 17.6163V9.75C10.625 9.40484 10.3455 9.125 10 9.125C9.65453 9.125 9.375 9.40484 9.375 9.75V17.6163L7.94187 16.1831C7.69766 15.9389 7.30219 15.9389 7.05813 16.1831C6.81406 16.4273 6.81391 16.8228 7.05813 17.0669L9.55813 19.5669C9.68016 19.6889 9.84016 19.75 10 19.75C10.1598 19.75 10.3198 19.6889 10.4419 19.5669L12.9419 17.0669C13.1861 16.8227 13.1861 16.4272 12.9419 16.1831C12.6977 15.9391 12.3022 15.9389 12.0581 16.1831Z" fill="white"/>
</svg>
