<svg width="40" height="40" viewBox="0 0 40 40" fill="none" xmlns="http://www.w3.org/2000/svg">
<g clip-path="url(#clip0_8008_611)">
<path d="M34.5455 0H5.45455C2.44208 0 0 2.44208 0 5.45455V34.5455C0 37.5579 2.44208 40 5.45455 40H34.5455C37.5579 40 40 37.5579 40 34.5455V5.45455C40 2.44208 37.5579 0 34.5455 0Z" fill="#0077B5"/>
<path d="M14.4119 10.9091C14.4119 11.5833 14.212 12.2425 13.8374 12.8031C13.4628 13.3637 12.9304 13.8007 12.3074 14.0587C11.6845 14.3167 10.9991 14.3842 10.3378 14.2527C9.67646 14.1211 9.06902 13.7965 8.59225 13.3197C8.11548 12.8429 7.7908 12.2355 7.65926 11.5742C7.52772 10.9129 7.59523 10.2274 7.85325 9.60449C8.11128 8.98156 8.54823 8.44913 9.10885 8.07454C9.66948 7.69994 10.3286 7.5 11.0028 7.5C11.907 7.5 12.7741 7.85917 13.4134 8.4985C14.0528 9.13783 14.4119 10.0049 14.4119 10.9091Z" fill="white"/>
<path d="M13.6412 16.5915V31.6529C13.6418 31.764 13.6204 31.8742 13.5783 31.977C13.5362 32.0798 13.4742 32.1733 13.3958 32.2521C13.3175 32.3309 13.2243 32.3934 13.1217 32.436C13.0191 32.4787 12.9091 32.5006 12.798 32.5006H9.20483C9.09372 32.5009 8.98365 32.4793 8.88094 32.4369C8.77823 32.3945 8.6849 32.3322 8.60634 32.2537C8.52777 32.1751 8.46551 32.0818 8.42312 31.9791C8.38074 31.8764 8.35908 31.7663 8.35938 31.6552V16.5915C8.35938 16.3673 8.44845 16.1523 8.60701 15.9937C8.76556 15.8352 8.9806 15.7461 9.20483 15.7461H12.798C13.0218 15.7467 13.2363 15.836 13.3944 15.9945C13.5524 16.153 13.6412 16.3677 13.6412 16.5915Z" fill="white"/>
<path d="M32.4179 24.4325V31.7234C32.4182 31.8255 32.3983 31.9267 32.3593 32.0212C32.3204 32.1156 32.2631 32.2014 32.1909 32.2737C32.1187 32.3459 32.0329 32.4031 31.9384 32.4421C31.844 32.481 31.7428 32.5009 31.6406 32.5006H27.777C27.6748 32.5009 27.5736 32.481 27.4792 32.4421C27.3847 32.4031 27.2989 32.3459 27.2267 32.2737C27.1545 32.2014 27.0972 32.1156 27.0583 32.0212C27.0193 31.9267 26.9994 31.8255 26.9997 31.7234V24.6575C26.9997 23.6029 27.3088 20.0393 24.2429 20.0393C21.8679 20.0393 21.3838 22.4779 21.2884 23.5734V31.7234C21.2884 31.9276 21.208 32.1236 21.0647 32.269C20.9214 32.4145 20.7266 32.4977 20.5224 32.5006H16.7906C16.6887 32.5006 16.5877 32.4805 16.4935 32.4414C16.3993 32.4023 16.3138 32.3451 16.2418 32.2728C16.1698 32.2006 16.1128 32.1149 16.074 32.0206C16.0352 31.9264 16.0153 31.8253 16.0156 31.7234V16.5256C16.0153 16.4237 16.0352 16.3227 16.074 16.2284C16.1128 16.1341 16.1698 16.0484 16.2418 15.9762C16.3138 15.904 16.3993 15.8467 16.4935 15.8076C16.5877 15.7685 16.6887 15.7484 16.7906 15.7484H20.5224C20.7286 15.7484 20.9263 15.8303 21.0721 15.976C21.2178 16.1218 21.2997 16.3195 21.2997 16.5256V17.8393C22.1815 16.5165 23.4884 15.4961 26.277 15.4961C32.4543 15.4961 32.4179 21.2643 32.4179 24.4325Z" fill="white"/>
</g>
<defs>
<clipPath id="clip0_8008_611">
<rect width="40" height="40" fill="white"/>
</clipPath>
</defs>
</svg>
