<svg width="48" height="48" viewBox="0 0 48 48" fill="none" xmlns="http://www.w3.org/2000/svg">
<path d="M40.5879 28.6633L30.3223 23.8173C30.2111 23.7645 30.0887 23.74 29.9658 23.746C29.8428 23.7519 29.7233 23.7881 29.6177 23.8514C29.6177 23.8517 24.7047 26.7843 19.3932 29.9396C19.2815 30.0108 19.1903 30.1098 19.1286 30.2271C19.0669 30.3443 19.0368 30.4756 19.0413 30.6079C19.0459 30.7403 19.0849 30.8692 19.1545 30.9819C19.2241 31.0946 19.3219 31.1872 19.4383 31.2506L36.9888 40.1344C37.1658 40.2207 37.3697 40.2339 37.5564 40.1711C37.7431 40.1083 37.8976 39.9746 37.9865 39.7988C38.0754 39.623 38.0915 39.4193 38.0315 39.2318C37.9714 39.0442 37.8399 38.8878 37.6655 38.7963L21.3358 30.5301C25.3574 28.1392 28.9461 25.9992 30.0433 25.3444L39.9478 30.0198C40.1271 30.1008 40.3311 30.1081 40.5158 30.0402C40.7005 29.9722 40.851 29.8343 40.935 29.6564C41.019 29.4784 41.0296 29.2746 40.9647 29.0888C40.8998 28.903 40.7644 28.7502 40.5879 28.6633Z" fill="white"/>
<path d="M44.8937 15.5408C44.7913 15.3704 44.6256 15.2476 44.4328 15.1993C44.2401 15.151 44.036 15.1811 43.8654 15.283L33.9997 21.1965C33.8858 21.2667 33.7926 21.3659 33.7296 21.4839C33.6666 21.6019 33.6361 21.7345 33.6412 21.8682C33.6462 22.0019 33.6867 22.1318 33.7585 22.2447C33.8302 22.3576 33.9307 22.4495 34.0496 22.5108L42.4731 26.7222C42.5612 26.7665 42.6572 26.7929 42.7555 26.8001C42.8539 26.8072 42.9527 26.7949 43.0463 26.7638C43.1399 26.7327 43.2264 26.6834 43.3009 26.6188C43.3755 26.5543 43.4365 26.4756 43.4807 26.3874C43.5248 26.2992 43.551 26.2031 43.558 26.1048C43.5649 26.0064 43.5524 25.9076 43.5211 25.8141C43.4898 25.7206 43.4404 25.6341 43.3757 25.5597C43.311 25.4853 43.2322 25.4244 43.1439 25.3804L35.9428 21.7802L44.6359 16.5698C44.7204 16.5192 44.7942 16.4525 44.8529 16.3734C44.9116 16.2943 44.9542 16.2043 44.9782 16.1088C45.0021 16.0132 45.007 15.9138 44.9925 15.8164C44.978 15.7189 44.9444 15.6253 44.8937 15.5408Z" fill="white"/>
<path d="M35.012 41.8608L15.604 32.5764C15.4503 32.5169 15.2831 32.5014 15.121 32.5317C11.232 34.6821 6.88754 37.401 6.52679 37.5333C6.3688 37.6015 6.23893 37.7217 6.15882 37.874C6.07871 38.0263 6.05319 38.2015 6.08652 38.3703C6.11984 38.5391 6.20999 38.6915 6.34195 38.8019C6.47392 38.9123 6.63974 38.9742 6.81179 38.9773C7.08188 38.9773 7.09053 38.974 15.32 34.103L34.3645 43.2136C34.5433 43.2951 34.7469 43.3031 34.9316 43.2361C35.1163 43.169 35.2672 43.0321 35.3521 42.8549C35.4369 42.6777 35.4488 42.4743 35.3852 42.2884C35.3216 42.1025 35.1876 41.949 35.012 41.8608Z" fill="white"/>
<path d="M22.031 13.8183C22.0293 12.386 21.4595 11.0128 20.4467 10C19.4339 8.98726 18.0606 8.4176 16.6283 8.41602C9.46663 8.69962 9.46865 18.9381 16.6284 19.2206C18.0607 19.219 19.4339 18.6494 20.4467 17.6366C21.4596 16.6238 22.0293 15.2506 22.031 13.8183ZM12.726 13.8183C12.726 13.0465 12.9548 12.292 13.3836 11.6503C13.8124 11.0086 14.4219 10.5084 15.135 10.213C15.848 9.91768 16.6326 9.8404 17.3896 9.99098C18.1466 10.1416 18.8419 10.5132 19.3877 11.059C19.9334 11.6047 20.3051 12.3 20.4556 13.057C20.6062 13.814 20.5289 14.5986 20.2336 15.3117C19.9382 16.0247 19.438 16.6342 18.7963 17.063C18.1545 17.4918 17.4001 17.7206 16.6283 17.7206C15.5937 17.7195 14.6018 17.308 13.8702 16.5764C13.1386 15.8448 12.7271 14.8529 12.726 13.8183Z" fill="white"/>
<path d="M16.6283 30.2741C17.1918 30.275 17.7426 30.106 18.2086 29.7891C18.6746 29.4722 19.0342 29.0221 19.2404 28.4976C19.2404 28.4976 19.8467 26.9701 20.0198 26.5697L31.6537 19.597C31.7649 19.5272 31.8562 19.4298 31.9185 19.3142C31.9808 19.1986 32.0121 19.0689 32.0093 18.9376C32.0065 18.8063 31.9697 18.678 31.9026 18.5652C31.8354 18.4524 31.7401 18.359 31.626 18.294L25.675 15.071C25.8106 14.1097 25.7865 13.1327 25.6037 12.1793L35.2632 16.9705C35.3727 17.0247 35.4938 17.0514 35.6159 17.0482C35.7381 17.045 35.8576 17.0121 35.9641 16.9522L41.3868 13.8995C41.5536 13.7987 41.6747 13.6369 41.7243 13.4484C41.774 13.2599 41.7483 13.0595 41.6527 12.8895C41.5572 12.7196 41.3993 12.5936 41.2124 12.5381C41.0255 12.4825 40.8244 12.5019 40.6516 12.5921L35.5745 15.4504L25.014 10.212C22.5931 4.23102 14.2068 2.74898 9.91674 7.63636C9.78327 7.7834 9.71358 7.97738 9.72295 8.17573C9.73232 8.37409 9.81999 8.56063 9.96671 8.69444C10.1134 8.82824 10.3073 8.89839 10.5056 8.88948C10.704 8.88058 10.8908 8.79335 11.0249 8.64694C12.3209 7.23872 14.099 6.36926 16.0063 6.21111C17.9136 6.05297 19.8106 6.61771 21.3209 7.79324C22.8311 8.96877 23.8442 10.6692 24.159 12.5569C24.4738 14.4447 24.0674 16.3818 23.0204 17.9838C21.112 21.2068 19.3841 24.5333 17.8448 27.948C17.7453 28.1881 17.577 28.3934 17.361 28.538C17.1451 28.6826 16.8911 28.76 16.6312 28.7606C16.3713 28.7611 16.1171 28.6847 15.9005 28.541C15.684 28.3973 15.5148 28.1927 15.4143 27.953C13.9959 24.4329 12.2384 21.0591 10.1665 17.8794C9.52493 16.8572 9.13376 15.698 9.02488 14.496C8.916 13.294 9.09248 12.0833 9.53995 10.9625C9.61373 10.7777 9.61111 10.5713 9.53269 10.3885C9.45426 10.2057 9.30645 10.0615 9.12174 9.98763C7.86268 9.58997 7.7756 11.7987 7.57477 12.5869C7.27577 14.7119 7.74568 16.8738 8.89982 18.6829C10.8836 21.7297 12.5732 24.9582 13.9458 28.3248L3.36932 34.5782C3.19907 34.6798 3.07602 34.8448 3.02709 35.037C2.97817 35.2292 3.00734 35.4329 3.10824 35.6036C3.20913 35.7743 3.37354 35.8981 3.56548 35.9479C3.75743 35.9978 3.96129 35.9695 4.13247 35.8694L14.7776 29.5755C15.2886 30.0263 15.9468 30.2748 16.6283 30.2741ZM24.2747 18.8059C24.7251 18.1184 25.0796 17.3726 25.3283 16.5893L29.7546 18.9865L21.1699 24.1313C22.1077 22.3013 23.1441 20.5236 24.2747 18.8059Z" fill="white"/>
</svg>
