<svg width="40" height="40" viewBox="0 0 40 40" fill="none" xmlns="http://www.w3.org/2000/svg">
<path d="M10 0C8.625 0 7.5 1.125 7.5 2.5V37.5C7.5 38.875 8.625 40 10 40H35C36.375 40 37.5 38.875 37.5 37.5V10L27.5 0H10Z" fill="#E5E5E5"/>
<path d="M30 10H37.5L27.5 0V7.5C27.5 8.875 28.625 10 30 10Z" fill="#B0B7BD"/>
<path d="M37.5 17.5L30 10H37.5V17.5Z" fill="#CAD1D8"/>
<path d="M32.5 32.5C32.5 33.1875 31.9375 33.75 31.25 33.75H3.75C3.0625 33.75 2.5 33.1875 2.5 32.5V20C2.5 19.3125 3.0625 18.75 3.75 18.75H31.25C31.9375 18.75 32.5 19.3125 32.5 20V32.5Z" fill="#F15642"/>
<path d="M7.94873 23.6841C7.94873 23.3541 8.20873 22.9941 8.62748 22.9941H10.9362C12.2362 22.9941 13.4062 23.8641 13.4062 25.5316C13.4062 27.1116 12.2362 27.9916 10.9362 27.9916H9.26748V29.3116C9.26748 29.7516 8.98748 30.0004 8.62748 30.0004C8.29748 30.0004 7.94873 29.7516 7.94873 29.3116V23.6841ZM9.26748 24.2529V26.7429H10.9362C11.6062 26.7429 12.1362 26.1516 12.1362 25.5316C12.1362 24.8329 11.6062 24.2529 10.9362 24.2529H9.26748Z" fill="#E5E5E5"/>
<path d="M15.3638 30.0002C15.0338 30.0002 14.6738 29.8202 14.6738 29.3815V23.704C14.6738 23.3452 15.0338 23.084 15.3638 23.084H17.6526C22.2201 23.084 22.1201 30.0002 17.7426 30.0002H15.3638ZM15.9938 24.304V28.7815H17.6526C20.3513 28.7815 20.4713 24.304 17.6526 24.304H15.9938Z" fill="#E5E5E5"/>
<path d="M23.7399 24.3843V25.973H26.2886C26.6486 25.973 27.0086 26.333 27.0086 26.6818C27.0086 27.0118 26.6486 27.2818 26.2886 27.2818H23.7399V29.3805C23.7399 29.7305 23.4911 29.9993 23.1411 29.9993C22.7011 29.9993 22.4324 29.7305 22.4324 29.3805V23.703C22.4324 23.3443 22.7024 23.083 23.1411 23.083H26.6499C27.0899 23.083 27.3499 23.3443 27.3499 23.703C27.3499 24.023 27.0899 24.383 26.6499 24.383H23.7399V24.3843Z" fill="#E5E5E5"/>
<path d="M31.25 33.75H7.5V35H31.25C31.9375 35 32.5 34.4375 32.5 33.75V32.5C32.5 33.1875 31.9375 33.75 31.25 33.75Z" fill="#CAD1D8"/>
</svg>
