<svg width="14" height="14" viewBox="0 0 14 14" fill="none" xmlns="http://www.w3.org/2000/svg">
<g clip-path="url(#clip0_8034_534)">
<path d="M10.6437 9.2619C10.1863 8.81034 9.61534 8.81034 9.16087 9.2619C8.81419 9.60566 8.46751 9.94943 8.12666 10.299C8.03344 10.3952 7.95478 10.4155 7.84116 10.3515C7.61684 10.2291 7.37795 10.1301 7.16237 9.99604C6.15729 9.36386 5.31536 8.55106 4.56956 7.63629C4.19957 7.18182 3.87037 6.69531 3.64023 6.14761C3.59361 6.03691 3.60235 5.96408 3.69267 5.87377C4.03934 5.53874 4.37728 5.19498 4.71814 4.85121C5.193 4.37343 5.193 3.81409 4.71522 3.3334C4.44429 3.05955 4.17335 2.79153 3.90242 2.51768C3.62275 2.23801 3.34599 1.95542 3.0634 1.67866C2.60602 1.23293 2.03502 1.23293 1.58055 1.68157C1.23095 2.02534 0.895928 2.37784 0.540509 2.71578C0.21131 3.0275 0.0452538 3.40914 0.0102946 3.85487C-0.0450575 4.58028 0.132652 5.26489 0.383193 5.93203C0.895928 7.31292 1.67668 8.53941 2.6235 9.66393C3.90242 11.1847 5.42897 12.3878 7.21481 13.256C8.01887 13.6464 8.85206 13.9464 9.75809 13.996C10.3815 14.0309 10.9234 13.8736 11.3575 13.3871C11.6546 13.055 11.9897 12.752 12.3043 12.4344C12.7704 11.9625 12.7733 11.3915 12.3101 10.9254C11.7566 10.3689 11.2002 9.81542 10.6437 9.2619Z" fill="#0B00CF"/>
<path d="M10.0867 6.93954L11.1617 6.75601C10.9928 5.76841 10.5266 4.87404 9.81871 4.1632C9.07 3.41449 8.12319 2.94254 7.08024 2.79688L6.92875 3.8777C7.73572 3.99132 8.46987 4.35547 9.04961 4.93521C9.5973 5.48291 9.95563 6.17627 10.0867 6.93954Z" fill="#0B00CF"/>
<path d="M11.7677 2.26652C10.5267 1.02547 8.95643 0.241801 7.22303 0L7.07154 1.08082C8.56896 1.29058 9.92655 1.96937 10.9986 3.03854C12.0154 4.05527 12.6825 5.34002 12.9243 6.75296L13.9993 6.56942C13.7167 4.93216 12.9447 3.4464 11.7677 2.26652Z" fill="#0B00CF"/>
</g>
<defs>
<clipPath id="clip0_8034_534">
<rect width="14" height="14" fill="white"/>
</clipPath>
</defs>
</svg>
