<svg width="40" height="40" viewBox="0 0 40 40" fill="none" xmlns="http://www.w3.org/2000/svg">
<g clip-path="url(#clip0_8008_608)">
<path d="M32.5 0H7.5C3.35786 0 0 3.35786 0 7.5V32.5C0 36.6421 3.35786 40 7.5 40H32.5C36.6421 40 40 36.6421 40 32.5V7.5C40 3.35786 36.6421 0 32.5 0Z" fill="#E21A20"/>
<path fill-rule="evenodd" clip-rule="evenodd" d="M30.8209 16.8504C30.6678 14.7411 30.2834 12.5629 27.5865 12.4036C22.5333 12.1155 17.4678 12.1155 12.4146 12.4036C9.71776 12.5598 9.33339 14.7411 9.18026 16.8504C9.02325 18.9475 9.02325 21.0534 9.18026 23.1504C9.33339 25.2598 9.71776 27.4379 12.4146 27.5973C17.4678 27.8854 22.5333 27.8854 27.5865 27.5973C30.2834 27.4411 30.6678 25.2598 30.8209 23.1504C30.9779 21.0534 30.9779 18.9475 30.8209 16.8504ZM17.8146 22.8129V16.5629L23.7521 19.6879L17.8146 22.8129Z" fill="white"/>
</g>
<defs>
<clipPath id="clip0_8008_608">
<rect width="40" height="40" fill="white"/>
</clipPath>
</defs>
</svg>
