<svg width="714" height="406" viewBox="0 0 714 406" fill="none" xmlns="http://www.w3.org/2000/svg">
<g style="mix-blend-mode:color-dodge" clip-path="url(#clip0_6476_6720)">
<g style="mix-blend-mode:overlay" opacity="0.42">
<path d="M651.77 53.54H660.18V61.95H651.77V53.54Z" fill="#FFFDFD"/>
<path d="M585.57 53.54H593.98V61.95H585.57V53.54Z" fill="#FFFDFD"/>
<path d="M563.5 53.54H571.91V61.95H563.5V53.54Z" fill="#FFFDFD"/>
<path d="M519.37 53.54H527.78V61.95H519.37V53.54Z" fill="#FFFDFD"/>
<path opacity="0.32" d="M475.23 53.54H483.64V61.95H475.23V53.54Z" fill="#FFFDFD"/>
<path d="M453.16 53.54H461.57V61.95H453.16V53.54Z" fill="#FFFDFD"/>
<path d="M386.96 53.54H395.37V61.95H386.96V53.54Z" fill="#FFFDFD"/>
<path opacity="0.32" d="M651.77 75.04H660.18V83.45H651.77V75.04Z" fill="#FFFDFD"/>
<path opacity="0.25" d="M607.64 75.04H616.05V83.45H607.64V75.04Z" fill="#FFFDFD"/>
<path opacity="0.25" d="M563.5 75.04H571.91V83.45H563.5V75.04Z" fill="#FFFDFD"/>
<path d="M541.43 75.04H549.84V83.45H541.43V75.04Z" fill="#FFFDFD"/>
<path d="M497.3 75.04H505.71V83.45H497.3V75.04Z" fill="#FFFDFD"/>
<path d="M453.16 75.04H461.57V83.45H453.16V75.04Z" fill="#FFFDFD"/>
<path opacity="0.32" d="M431.1 75.04H439.51V83.45H431.1V75.04Z" fill="#FFFDFD"/>
<path opacity="0.32" d="M409.03 75.04H417.44V83.45H409.03V75.04Z" fill="#FFFDFD"/>
<path d="M364.89 75.04H373.3V83.45H364.89V75.04Z" fill="#FFFDFD"/>
<path opacity="0.46" d="M342.83 75.04H351.24V83.45H342.83V75.04Z" fill="#FFFDFD"/>
<path d="M651.77 96.6901H660.18V105.1H651.77V96.6901Z" fill="#FFFDFD"/>
<path d="M629.7 96.6901H638.11V105.1H629.7V96.6901Z" fill="#FFFDFD"/>
<path d="M607.64 96.6901H616.05V105.1H607.64V96.6901Z" fill="#FFFDFD"/>
<path d="M563.5 96.6901H571.91V105.1H563.5V96.6901Z" fill="#FFFDFD"/>
<path d="M497.3 96.6901H505.71V105.1H497.3V96.6901Z" fill="#FFFDFD"/>
<path opacity="0.37" d="M431.1 96.6901H439.51V105.1H431.1V96.6901Z" fill="#FFFDFD"/>
<path d="M386.96 96.6901H395.37V105.1H386.96V96.6901Z" fill="#FFFDFD"/>
<path d="M342.83 96.6901H351.24V105.1H342.83V96.6901Z" fill="#FFFDFD"/>
<path opacity="0.32" d="M629.7 118.19H638.11V126.6H629.7V118.19Z" fill="#FFFDFD"/>
<path d="M585.57 118.19H593.98V126.6H585.57V118.19Z" fill="#FFFDFD"/>
<path opacity="0.32" d="M563.5 118.19H571.91V126.6H563.5V118.19Z" fill="#FFFDFD"/>
<path opacity="0.32" d="M541.43 118.19H549.84V126.6H541.43V118.19Z" fill="#FFFDFD"/>
<path d="M475.23 118.19H483.64V126.6H475.23V118.19Z" fill="#FFFDFD"/>
<path d="M431.1 118.19H439.51V126.6H431.1V118.19Z" fill="#FFFDFD"/>
<path d="M409.03 118.19H417.44V126.6H409.03V118.19Z" fill="#FFFDFD"/>
<path d="M386.96 118.19H395.37V126.6H386.96V118.19Z" fill="#FFFDFD"/>
<path opacity="0.32" d="M364.89 118.19H373.3V126.6H364.89V118.19Z" fill="#FFFDFD"/>
<path d="M651.77 139.69H660.18V148.1H651.77V139.69Z" fill="#FFFDFD"/>
<path opacity="0.24" d="M607.64 139.69H616.05V148.1H607.64V139.69Z" fill="#FFFDFD"/>
<path d="M585.57 139.69H593.98V148.1H585.57V139.69Z" fill="#FFFDFD"/>
<path opacity="0.24" d="M541.43 139.69H549.84V148.1H541.43V139.69Z" fill="#FFFDFD"/>
<path d="M497.3 139.69H505.71V148.1H497.3V139.69Z" fill="#FFFDFD"/>
<path d="M431.1 139.69H439.51V148.1H431.1V139.69Z" fill="#FFFDFD"/>
<path opacity="0.32" d="M409.03 139.69H417.44V148.1H409.03V139.69Z" fill="#FFFDFD"/>
<path d="M364.89 139.69H373.3V148.1H364.89V139.69Z" fill="#FFFDFD"/>
<path d="M342.83 139.69H351.24V148.1H342.83V139.69Z" fill="#FFFDFD"/>
<path d="M651.77 161.19H660.18V169.6H651.77V161.19Z" fill="#FFFDFD"/>
<path d="M629.7 161.19H638.11V169.6H629.7V161.19Z" fill="#FFFDFD"/>
<path opacity="0.32" d="M585.57 161.19H593.98V169.6H585.57V161.19Z" fill="#FFFDFD"/>
<path d="M563.5 161.19H571.91V169.6H563.5V161.19Z" fill="#FFFDFD"/>
<path opacity="0.3" d="M519.37 161.19H527.78V169.6H519.37V161.19Z" fill="#FFFDFD"/>
<path d="M497.3 161.19H505.71V169.6H497.3V161.19Z" fill="#FFFDFD"/>
<path opacity="0.3" d="M475.23 161.19H483.64V169.6H475.23V161.19Z" fill="#FFFDFD"/>
<path d="M453.16 161.19H461.57V169.6H453.16V161.19Z" fill="#FFFDFD"/>
<path d="M409.03 161.19H417.44V169.6H409.03V161.19Z" fill="#FFFDFD"/>
<path d="M386.96 161.19H395.37V169.6H386.96V161.19Z" fill="#FFFDFD"/>
<path d="M629.7 182.83H638.11V191.24H629.7V182.83Z" fill="#FFFDFD"/>
<path d="M607.64 182.83H616.05V191.24H607.64V182.83Z" fill="#FFFDFD"/>
<path d="M541.43 182.83H549.84V191.24H541.43V182.83Z" fill="#FFFDFD"/>
<path opacity="0.32" d="M497.3 182.83H505.71V191.24H497.3V182.83Z" fill="#FFFDFD"/>
<path d="M453.16 182.83H461.57V191.24H453.16V182.83Z" fill="#FFFDFD"/>
<path d="M431.1 182.83H439.51V191.24H431.1V182.83Z" fill="#FFFDFD"/>
<path d="M409.03 182.83H417.44V191.24H409.03V182.83Z" fill="#FFFDFD"/>
<path d="M342.83 182.83H351.24V191.24H342.83V182.83Z" fill="#FFFDFD"/>
<path d="M651.77 204.34H660.18V212.75H651.77V204.34Z" fill="#FFFDFD"/>
<path opacity="0.31" d="M607.64 204.34H616.05V212.75H607.64V204.34Z" fill="#FFFDFD"/>
<path d="M585.57 204.34H593.98V212.75H585.57V204.34Z" fill="#FFFDFD"/>
<path opacity="0.32" d="M563.5 204.34H571.91V212.75H563.5V204.34Z" fill="#FFFDFD"/>
<path opacity="0.32" d="M541.43 204.34H549.84V212.75H541.43V204.34Z" fill="#FFFDFD"/>
<path d="M519.37 204.34H527.78V212.75H519.37V204.34Z" fill="#FFFDFD"/>
<path d="M497.3 204.34H505.71V212.75H497.3V204.34Z" fill="#FFFDFD"/>
<path d="M453.16 204.34H461.57V212.75H453.16V204.34Z" fill="#FFFDFD"/>
<path d="M386.96 204.34H395.37V212.75H386.96V204.34Z" fill="#FFFDFD"/>
<path opacity="0.32" d="M607.64 225.81H616.05V234.22H607.64V225.81Z" fill="#FFFDFD"/>
<path opacity="0.31" d="M563.5 225.81H571.91V234.22H563.5V225.81Z" fill="#FFFDFD"/>
<path opacity="0.32" d="M475.23 225.81H483.64V234.22H475.23V225.81Z" fill="#FFFDFD"/>
<path d="M453.16 225.81H461.57V234.22H453.16V225.81Z" fill="#FFFDFD"/>
<path d="M431.1 225.81H439.51V234.22H431.1V225.81Z" fill="#FFFDFD"/>
<path d="M386.96 225.81H395.37V234.22H386.96V225.81Z" fill="#FFFDFD"/>
<path d="M364.89 225.81H373.3V234.22H364.89V225.81Z" fill="#FFFDFD"/>
<path d="M342.83 225.81H351.24V234.22H342.83V225.81Z" fill="#FFFDFD"/>
<path d="M651.77 247.45H660.18V255.86H651.77V247.45Z" fill="#FFFDFD"/>
<path d="M629.7 247.45H638.11V255.86H629.7V247.45Z" fill="#FFFDFD"/>
<path d="M607.64 247.45H616.05V255.86H607.64V247.45Z" fill="#FFFDFD"/>
<path d="M563.5 247.45H571.91V255.86H563.5V247.45Z" fill="#FFFDFD"/>
<path d="M519.37 247.45H527.78V255.86H519.37V247.45Z" fill="#FFFDFD"/>
<path d="M475.23 247.45H483.64V255.86H475.23V247.45Z" fill="#FFFDFD"/>
<path d="M386.96 247.45H395.37V255.86H386.96V247.45Z" fill="#FFFDFD"/>
<path d="M342.83 247.45H351.24V255.86H342.83V247.45Z" fill="#FFFDFD"/>
<path d="M629.7 268.96H638.11V277.37H629.7V268.96Z" fill="#FFFDFD"/>
<path d="M585.57 268.96H593.98V277.37H585.57V268.96Z" fill="#FFFDFD"/>
<path opacity="0.32" d="M563.5 268.96H571.91V277.37H563.5V268.96Z" fill="#FFFDFD"/>
<path d="M541.43 268.96H549.84V277.37H541.43V268.96Z" fill="#FFFDFD"/>
<path d="M519.37 268.96H527.78V277.37H519.37V268.96Z" fill="#FFFDFD"/>
<path d="M475.23 268.96H483.64V277.37H475.23V268.96Z" fill="#FFFDFD"/>
<path d="M453.16 268.96H461.57V277.37H453.16V268.96Z" fill="#FFFDFD"/>
<path d="M409.03 268.96H417.44V277.37H409.03V268.96Z" fill="#FFFDFD"/>
<path d="M364.89 268.96H373.3V277.37H364.89V268.96Z" fill="#FFFDFD"/>
<path d="M651.77 290.46H660.18V298.87H651.77V290.46Z" fill="#FFFDFD"/>
<path opacity="0.32" d="M585.57 290.46H593.98V298.87H585.57V290.46Z" fill="#FFFDFD"/>
<path d="M541.43 290.46H549.84V298.87H541.43V290.46Z" fill="#FFFDFD"/>
<path d="M475.23 290.46H483.64V298.87H475.23V290.46Z" fill="#FFFDFD"/>
<path d="M453.16 290.46H461.57V298.87H453.16V290.46Z" fill="#FFFDFD"/>
<path d="M409.03 290.46H417.44V298.87H409.03V290.46Z" fill="#FFFDFD"/>
<path opacity="0.32" d="M386.96 290.46H395.37V298.87H386.96V290.46Z" fill="#FFFDFD"/>
<path d="M342.83 290.46H351.24V298.87H342.83V290.46Z" fill="#FFFDFD"/>
<path d="M629.7 311.96H638.11V320.37H629.7V311.96Z" fill="#FFFDFD"/>
<path opacity="0.41" d="M585.57 311.96H593.98V320.37H585.57V311.96Z" fill="#FFFDFD"/>
<path d="M541.43 311.96H549.84V320.37H541.43V311.96Z" fill="#FFFDFD"/>
<path d="M497.3 311.96H505.71V320.37H497.3V311.96Z" fill="#FFFDFD"/>
<path d="M475.23 311.96H483.64V320.37H475.23V311.96Z" fill="#FFFDFD"/>
<path opacity="0.32" d="M386.96 311.96H395.37V320.37H386.96V311.96Z" fill="#FFFDFD"/>
<path d="M364.89 311.96H373.3V320.37H364.89V311.96Z" fill="#FFFDFD"/>
<path opacity="0.32" d="M342.83 311.96H351.24V320.37H342.83V311.96Z" fill="#FFFDFD"/>
</g>
<g style="mix-blend-mode:overlay" opacity="0.45">
<path d="M557.29 157L549.58 164.71L557.29 172.41V157Z" fill="white"/>
</g>
<g style="mix-blend-mode:overlay" opacity="0.45">
<path d="M656.81 186.5L649.11 194.21L656.81 201.91V186.5Z" fill="white"/>
</g>
<g style="mix-blend-mode:overlay" opacity="0.45">
<path d="M611.02 186.5L603.32 194.21L611.02 201.91V186.5Z" fill="white"/>
</g>
<g style="mix-blend-mode:overlay" opacity="0.45">
<path d="M424.58 346.18L416.46 354.3L424.58 362.42V346.18Z" fill="white"/>
</g>
<g style="mix-blend-mode:overlay">
<path d="M375.68 363.63V344.97L366.35 354.3L375.68 363.63ZM374.68 347.38V361.21L367.76 354.29L374.68 347.37V347.38Z" fill="white"/>
</g>
<g style="mix-blend-mode:overlay">
<path d="M401.24 363.63V344.97L391.91 354.3L401.24 363.63ZM400.24 347.38V361.21L393.32 354.29L400.24 347.37V347.38Z" fill="white"/>
</g>
<g style="mix-blend-mode:overlay">
<path d="M634.75 203.12V185.29L625.84 194.2L634.75 203.11V203.12ZM633.75 187.71V200.71L627.25 194.21L633.75 187.71Z" fill="white"/>
</g>
<g style="mix-blend-mode:overlay" opacity="0.45">
<path d="M493.06 245.37L480.92 257.51L493.06 269.64V245.37Z" fill="white"/>
</g>
<path style="mix-blend-mode:color-dodge" d="M617.35 212.45C580.518 212.45 550.66 211.308 550.66 209.9C550.66 208.492 580.518 207.35 617.35 207.35C654.182 207.35 684.04 208.492 684.04 209.9C684.04 211.308 654.182 212.45 617.35 212.45Z" fill="url(#paint0_radial_6476_6720)"/>
<path style="mix-blend-mode:color-dodge" d="M488.28 330.9C451.448 330.9 421.59 329.758 421.59 328.35C421.59 326.942 451.448 325.8 488.28 325.8C525.112 325.8 554.97 326.942 554.97 328.35C554.97 329.758 525.112 330.9 488.28 330.9Z" fill="url(#paint1_radial_6476_6720)"/>
<path style="mix-blend-mode:color-dodge" d="M627.63 134.15C590.798 134.15 560.94 133.008 560.94 131.6C560.94 130.192 590.798 129.05 627.63 129.05C664.462 129.05 694.32 130.192 694.32 131.6C694.32 133.008 664.462 134.15 627.63 134.15Z" fill="url(#paint2_radial_6476_6720)"/>
<path style="mix-blend-mode:color-dodge" d="M477.66 56.3299C457.734 56.3299 441.58 55.7121 441.58 54.9499C441.58 54.1878 457.734 53.5699 477.66 53.5699C497.586 53.5699 513.74 54.1878 513.74 54.9499C513.74 55.7121 497.586 56.3299 477.66 56.3299Z" fill="url(#paint3_radial_6476_6720)"/>
<g style="mix-blend-mode:overlay" opacity="0.43">
<path d="M505.64 106.6L492.37 119.87H438.08C437.56 123.37 434.54 126.07 430.9 126.07C426.89 126.07 423.63 122.81 423.63 118.8C423.63 114.79 426.89 111.53 430.9 111.53C434.91 111.53 438.11 114.74 438.16 118.7H491.88L504.81 105.77L494.9 95.86H409.37C409.06 99.59 405.94 102.53 402.13 102.53C398.12 102.53 394.86 99.27 394.86 95.26C394.86 91.25 398.12 87.99 402.13 87.99C406.14 87.99 409.08 90.95 409.37 94.69H495.39L505.64 104.94L517.85 92.73H662.63V93.9H518.33L506.47 105.76L520.63 119.92H663.4V121.09H520.14L505.64 106.59V106.6ZM430.9 112.71C427.54 112.71 424.8 115.45 424.8 118.81C424.8 122.17 427.54 124.91 430.9 124.91C434.26 124.91 437 122.17 437 118.81C437 115.45 434.26 112.71 430.9 112.71ZM402.13 89.17C398.77 89.17 396.03 91.91 396.03 95.27C396.03 98.63 398.77 101.37 402.13 101.37C405.49 101.37 408.23 98.63 408.23 95.27C408.23 91.91 405.49 89.17 402.13 89.17Z" fill="white"/>
<path d="M513.41 226.05H410.78C410.66 229.95 407.45 233.09 403.52 233.09C399.59 233.09 396.25 229.83 396.25 225.82C396.25 221.81 399.51 218.55 403.52 218.55C407.21 218.55 410.26 221.31 410.72 224.88H512.92L532.67 205.13H475.6L462.04 191.57H440.79C440.27 195.07 437.25 197.77 433.61 197.77C429.6 197.77 426.34 194.51 426.34 190.5C426.34 186.49 429.6 183.23 433.61 183.23C437.62 183.23 440.82 186.44 440.87 190.4H462.52L476.08 203.96H533.83L564.62 173.17H420.91C420.52 176.82 417.43 179.67 413.68 179.67C409.67 179.67 406.41 176.41 406.41 172.4C406.41 168.39 409.67 165.13 413.68 165.13C417.69 165.13 420.72 168.18 420.93 172H565.79L566.41 171.37L567.03 172H663.4V173.17H566.29L535.5 203.96H663.79V205.13H534.33L513.41 226.05ZM403.52 219.72C400.16 219.72 397.42 222.46 397.42 225.82C397.42 229.18 400.16 231.92 403.52 231.92C406.88 231.92 409.62 229.18 409.62 225.82C409.62 222.46 406.88 219.72 403.52 219.72ZM433.62 184.4C430.26 184.4 427.52 187.14 427.52 190.5C427.52 193.86 430.26 196.6 433.62 196.6C436.98 196.6 439.72 193.86 439.72 190.5C439.72 187.14 436.98 184.4 433.62 184.4ZM413.7 166.3C410.34 166.3 407.6 169.04 407.6 172.4C407.6 175.76 410.34 178.5 413.7 178.5C417.06 178.5 419.8 175.76 419.8 172.4C419.8 169.04 417.06 166.3 413.7 166.3Z" fill="white"/>
<path d="M389.92 58.9399C393.67 58.9399 396.77 61.7999 397.15 65.4599H451.5L487.02 29.9399H663.4V31.1099H487.5L453.15 65.4599H564.12L583.33 46.2499H663.02V47.4199H583.82L565.78 65.4599H663.4V66.6299H564.61L551.07 80.1699H465.34C464.95 83.8099 461.86 86.6599 458.11 86.6599C454.1 86.6599 450.84 83.3999 450.84 79.3899C450.84 75.3799 454.1 72.1199 458.11 72.1199C462.12 72.1199 465.15 75.1699 465.36 78.9999H550.58L562.95 66.6299H451.98L451.92 66.6899L451.86 66.6299H397.17C396.95 70.4399 393.79 73.4799 389.92 73.4799C386.05 73.4799 382.65 70.2199 382.65 66.2099C382.65 62.1999 385.91 58.9399 389.92 58.9399ZM458.13 73.2799C454.77 73.2799 452.03 76.0199 452.03 79.3799C452.03 82.7399 454.77 85.4799 458.13 85.4799C461.49 85.4799 464.23 82.7399 464.23 79.3799C464.23 76.0199 461.49 73.2799 458.13 73.2799ZM389.92 72.2999C393.28 72.2999 396.02 69.5599 396.02 66.1999C396.02 62.8399 393.28 60.0999 389.92 60.0999C386.56 60.0999 383.82 62.8399 383.82 66.1999C383.82 69.5599 386.56 72.2999 389.92 72.2999Z" fill="white"/>
<path d="M463.37 146.68C459.36 146.68 456.1 143.42 456.1 139.41C456.1 135.4 459.36 132.14 463.37 132.14C467.38 132.14 470.64 135.4 470.64 139.41C470.64 139.46 470.64 139.51 470.64 139.56H663.4V140.73H470.51C469.89 144.11 466.92 146.68 463.37 146.68ZM463.37 133.31C460.01 133.31 457.27 136.05 457.27 139.41C457.27 142.77 460.01 145.51 463.37 145.51C466.73 145.51 469.47 142.77 469.47 139.41C469.47 136.05 466.73 133.31 463.37 133.31Z" fill="white"/>
<path d="M402.01 317.23C405.93 317.23 409.12 320.35 409.26 324.23H484.88L506.33 302.78H469.85C469.32 306.26 466.31 308.94 462.67 308.94C458.66 308.94 455.4 305.68 455.4 301.67C455.4 297.66 458.66 294.4 462.67 294.4C466.68 294.4 469.9 297.63 469.94 301.6H507.5L548.58 260.52H559.94L547.9 248.48H524.57L495.66 277.39H419.06C418.46 280.8 415.49 283.4 411.91 283.4C407.9 283.4 404.64 280.14 404.64 276.13C404.64 272.12 407.9 268.86 411.91 268.86C415.92 268.86 419.18 272.12 419.18 276.13C419.18 276.16 419.18 276.19 419.18 276.22H495.18L522.92 248.48H454.16C453.98 252.33 450.8 255.41 446.91 255.41C443.02 255.41 439.64 252.15 439.64 248.14C439.64 244.13 442.9 240.87 446.91 240.87C450.64 240.87 453.72 243.69 454.13 247.31H524.1L544.6 226.81H663.02V227.98H545.07L525.74 247.31H548.29L548.34 247.26L548.39 247.31H663.4V248.48H549.55L561.59 260.52H663.4V261.69H562.76L584.33 283.26H661.6V284.43H583.86L561.12 261.69H549.07L509.16 301.6H662.63V302.77H507.98L485.37 325.38H409.22C408.78 328.97 405.72 331.75 402.01 331.75C398 331.75 394.74 328.49 394.74 324.48C394.74 320.47 398 317.21 402.01 317.21V317.23ZM462.68 295.57C459.32 295.57 456.58 298.31 456.58 301.67C456.58 305.03 459.32 307.77 462.68 307.77C466.04 307.77 468.78 305.03 468.78 301.67C468.78 298.31 466.04 295.57 462.68 295.57ZM411.92 270.03C408.56 270.03 405.82 272.77 405.82 276.13C405.82 279.49 408.56 282.23 411.92 282.23C415.28 282.23 418.02 279.49 418.02 276.13C418.02 272.77 415.28 270.03 411.92 270.03ZM446.91 242.04C443.55 242.04 440.81 244.78 440.81 248.14C440.81 251.5 443.55 254.24 446.91 254.24C450.27 254.24 453.01 251.5 453.01 248.14C453.01 244.78 450.27 242.04 446.91 242.04ZM402.01 330.59C405.37 330.59 408.11 327.85 408.11 324.49C408.11 321.13 405.37 318.39 402.01 318.39C398.65 318.39 395.91 321.13 395.91 324.49C395.91 327.85 398.65 330.59 402.01 330.59Z" fill="white"/>
<path d="M425.31 351C429.16 351 432.31 354.01 432.55 357.79H564.34L595.73 326.4H664.18V327.57H596.22L564.83 358.96H432.54C432.19 362.64 429.08 365.53 425.31 365.53C421.3 365.53 418.04 362.27 418.04 358.26C418.04 354.25 421.3 350.99 425.31 350.99V351ZM425.31 364.37C428.67 364.37 431.41 361.63 431.41 358.27C431.41 354.91 428.67 352.17 425.31 352.17C421.95 352.17 419.21 354.91 419.21 358.27C419.21 361.63 421.95 364.37 425.31 364.37Z" fill="white"/>
<path d="M517.7 154.61C517.67 158.59 514.42 161.82 510.43 161.82C506.44 161.82 503.16 158.56 503.16 154.55C503.16 150.54 506.42 147.28 510.43 147.28C514.44 147.28 517.66 150.51 517.7 154.49V153.57H663.4V154.74H517.7V154.6V154.61ZM510.44 148.45C507.08 148.45 504.34 151.19 504.34 154.55C504.34 157.91 507.08 160.65 510.44 160.65C513.8 160.65 516.54 157.91 516.54 154.55C516.54 151.19 513.8 148.45 510.44 148.45Z" fill="white"/>
</g>
<g style="mix-blend-mode:overlay">
<path d="M552.29 104.03H701.58V103.03H552.7L504.7 55.03H293.01V56.03H504.29L552.29 104.03Z" fill="white"/>
<path d="M435.1 61.42C431.742 61.42 429.02 58.6979 429.02 55.34C429.02 51.9821 431.742 49.26 435.1 49.26C438.458 49.26 441.18 51.9821 441.18 55.34C441.18 58.6979 438.458 61.42 435.1 61.42Z" fill="white"/>
<path d="M412.5 61.42C409.142 61.42 406.42 58.6979 406.42 55.34C406.42 51.9821 409.142 49.26 412.5 49.26C415.858 49.26 418.58 51.9821 418.58 55.34C418.58 58.6979 415.858 61.42 412.5 61.42Z" fill="white"/>
<path d="M384.59 55.34C384.59 58.7 387.31 61.42 390.67 61.42C394.03 61.42 396.75 58.7 396.75 55.34C396.75 51.98 394.03 49.26 390.67 49.26C387.31 49.26 384.59 51.98 384.59 55.34Z" fill="white"/>
<path d="M411.99 137.78C415.62 137.78 418.57 134.83 418.57 131.2C418.57 127.57 415.62 124.62 411.99 124.62C408.36 124.62 405.41 127.57 405.41 131.2C405.41 134.83 408.36 137.78 411.99 137.78ZM411.99 125.63C415.06 125.63 417.57 128.13 417.57 131.21C417.57 134.29 415.07 136.79 411.99 136.79C408.91 136.79 406.41 134.29 406.41 131.21C406.41 128.13 408.91 125.63 411.99 125.63Z" fill="white"/>
<path d="M367.55 137.78C371.18 137.78 374.13 134.83 374.13 131.2C374.13 127.57 371.18 124.62 367.55 124.62C363.92 124.62 360.97 127.57 360.97 131.2C360.97 134.83 363.92 137.78 367.55 137.78ZM367.55 125.63C370.62 125.63 373.13 128.13 373.13 131.21C373.13 134.29 370.63 136.79 367.55 136.79C364.47 136.79 361.97 134.29 361.97 131.21C361.97 128.13 364.47 125.63 367.55 125.63Z" fill="white"/>
<path d="M556.79 130.64C556.79 134 559.51 136.72 562.87 136.72C566.23 136.72 568.95 134 568.95 130.64C568.95 127.28 566.23 124.56 562.87 124.56C559.51 124.56 556.79 127.28 556.79 130.64Z" fill="white"/>
<path d="M534.18 130.64C534.18 134 536.9 136.72 540.26 136.72C543.62 136.72 546.34 134 546.34 130.64C546.34 127.28 543.62 124.56 540.26 124.56C536.9 124.56 534.18 127.28 534.18 130.64Z" fill="white"/>
<path d="M512.35 130.64C512.35 134 515.07 136.72 518.43 136.72C521.79 136.72 524.51 134 524.51 130.64C524.51 127.28 521.79 124.56 518.43 124.56C515.07 124.56 512.35 127.28 512.35 130.64Z" fill="white"/>
<path d="M483.45 208.85C483.45 212.21 486.17 214.93 489.53 214.93C492.89 214.93 495.61 212.21 495.61 208.85C495.61 205.49 492.89 202.77 489.53 202.77C486.17 202.77 483.45 205.49 483.45 208.85Z" fill="white"/>
<path d="M628.53 352.75C628.53 356.11 631.25 358.83 634.61 358.83C637.97 358.83 640.69 356.11 640.69 352.75C640.69 349.39 637.97 346.67 634.61 346.67C631.25 346.67 628.53 349.39 628.53 352.75Z" fill="white"/>
<path d="M577.91 46.93C574.552 46.93 571.83 44.2079 571.83 40.85C571.83 37.4921 574.552 34.77 577.91 34.77C581.268 34.77 583.99 37.4921 583.99 40.85C583.99 44.2079 581.268 46.93 577.91 46.93Z" fill="white"/>
<path d="M408.32 334.36C404.962 334.36 402.24 331.638 402.24 328.28C402.24 324.922 404.962 322.2 408.32 322.2C411.678 322.2 414.4 324.922 414.4 328.28C414.4 331.638 411.678 334.36 408.32 334.36Z" fill="white"/>
<path d="M379.64 328.28C379.64 331.64 382.36 334.36 385.72 334.36C389.08 334.36 391.8 331.64 391.8 328.28C391.8 324.92 389.08 322.2 385.72 322.2C382.36 322.2 379.64 324.92 379.64 328.28Z" fill="white"/>
<path d="M363.88 334.36C360.522 334.36 357.8 331.638 357.8 328.28C357.8 324.922 360.522 322.2 363.88 322.2C367.238 322.2 369.96 324.922 369.96 328.28C369.96 331.638 367.238 334.36 363.88 334.36Z" fill="white"/>
<path d="M636.6 234.41C636.6 237.77 639.32 240.49 642.68 240.49C646.04 240.49 648.76 237.77 648.76 234.41C648.76 231.05 646.04 228.33 642.68 228.33C639.32 228.33 636.6 231.05 636.6 234.41Z" fill="white"/>
<path d="M437.97 234.41C437.97 237.77 440.69 240.49 444.05 240.49C447.41 240.49 450.13 237.77 450.13 234.41C450.13 231.05 447.41 228.33 444.05 228.33C440.69 228.33 437.97 231.05 437.97 234.41Z" fill="white"/>
<path d="M592.16 234.41C592.16 237.77 594.88 240.49 598.24 240.49C601.6 240.49 604.32 237.77 604.32 234.41C604.32 231.05 601.6 228.33 598.24 228.33C594.88 228.33 592.16 231.05 592.16 234.41Z" fill="white"/>
<path d="M522.92 264.41H714V263.41H523.34L457.83 197.9H362.54V198.9H457.42L522.92 264.41Z" fill="white"/>
<path d="M305.72 327.78H708.35V328.78H305.72V327.78Z" fill="white"/>
<path d="M427.34 328.78L461.22 294.9H703.84V293.9H460.81L426.64 328.07L427.34 328.78Z" fill="white"/>
<path d="M682.02 400.92L682.73 400.21L634.58 352.07H534.63L459.81 277.24H344.68V278.24H459.39L534.22 353.07H634.17L682.02 400.92Z" fill="white"/>
<path d="M349.49 130.42H694.52V131.42H349.49V130.42Z" fill="white"/>
<path d="M360.21 168.69H449.93L577.83 40.78H681.81V39.78H577.42L449.51 167.69H360.21V168.69Z" fill="white"/>
<path d="M424.31 234.61H703.84V235.61H424.31V234.61Z" fill="white"/>
<path d="M582.99 177.44H693.67C701.42 177.44 707.72 171.14 707.72 163.39C707.72 155.64 701.42 149.34 693.67 149.34H582.99C575.24 149.34 568.94 155.64 568.94 163.39C568.94 171.14 575.24 177.44 582.99 177.44ZM693.67 150.34C700.87 150.34 706.72 156.2 706.72 163.39C706.72 170.58 700.86 176.44 693.67 176.44H582.99C575.79 176.44 569.94 170.58 569.94 163.39C569.94 156.2 575.8 150.34 582.99 150.34H693.67Z" fill="white"/>
<path opacity="0.23" d="M582.99 149.84H693.67C701.16 149.84 707.22 155.91 707.22 163.39C707.22 170.88 701.15 176.94 693.67 176.94H582.99C575.5 176.94 569.44 170.87 569.44 163.39C569.44 155.91 575.51 149.84 582.99 149.84Z" fill="white"/>
<path opacity="0.34" d="M373.06 312.38H408.64C414.96 312.38 420.08 307.26 420.08 300.94C420.08 294.62 414.96 289.5 408.64 289.5H373.06C366.74 289.5 361.62 294.62 361.62 300.94C361.62 307.26 366.74 312.38 373.06 312.38Z" fill="white"/>
<path opacity="0.32" d="M639.32 323.2H674.9C681.22 323.2 686.34 318.08 686.34 311.76C686.34 305.44 681.22 300.32 674.9 300.32H639.32C633 300.32 627.88 305.44 627.88 311.76C627.88 318.08 633 323.2 639.32 323.2Z" fill="white"/>
<path d="M559.65 341.79H566.51C572.96 341.79 578.19 336.56 578.19 330.11C578.19 323.66 572.96 318.43 566.51 318.43H559.65C553.2 318.43 547.97 323.66 547.97 330.11C547.97 336.56 553.2 341.79 559.65 341.79Z" fill="white"/>
<path d="M578.1 115.47H627.88C634.59 115.47 640.06 110.01 640.06 103.29C640.06 96.57 634.6 91.11 627.88 91.11H578.1C571.39 91.11 565.92 96.57 565.92 103.29C565.92 110.01 571.38 115.47 578.1 115.47ZM627.88 92.12C634.04 92.12 639.06 97.13 639.06 103.3C639.06 109.47 634.05 114.48 627.88 114.48H578.1C571.94 114.48 566.92 109.47 566.92 103.3C566.92 97.13 571.93 92.12 578.1 92.12H627.88Z" fill="white"/>
<path opacity="0.38" d="M467.43 278.82H535.26C544.047 278.82 551.17 285.943 551.17 294.73C551.17 303.517 544.047 310.64 535.26 310.64H467.43C458.643 310.64 451.52 303.517 451.52 294.73C451.52 285.943 458.643 278.82 467.43 278.82Z" fill="white"/>
<path opacity="0.44" d="M453.79 123.27H483.23C485.32 123.27 487.01 121.58 487.01 119.49C487.01 117.4 485.32 115.71 483.23 115.71H453.79C451.7 115.71 450.01 117.4 450.01 119.49C450.01 121.58 451.7 123.27 453.79 123.27Z" fill="white"/>
<path d="M494.28 95.3399H506.35C507.91 95.3399 509.18 94.0699 509.18 92.5099C509.18 90.9499 507.91 89.6799 506.35 89.6799H494.28C492.72 89.6799 491.45 90.9499 491.45 92.5099C491.45 94.0699 492.72 95.3399 494.28 95.3399Z" fill="white"/>
<path opacity="0.48" d="M478.35 43.5899H509.09C513.07 43.5899 516.3 40.3599 516.3 36.3799C516.3 32.3999 513.07 29.1699 509.09 29.1699H478.35C474.37 29.1699 471.14 32.3999 471.14 36.3799C471.14 40.3599 474.37 43.5899 478.35 43.5899Z" fill="white"/>
<path opacity="0.27" d="M553.92 377.51H588.58C593.07 377.51 596.71 373.87 596.71 369.38C596.71 364.89 593.07 361.25 588.58 361.25H553.92C549.43 361.25 545.79 364.89 545.79 369.38C545.79 373.87 549.43 377.51 553.92 377.51Z" fill="white"/>
<path d="M553.92 378.01H588.58C593.34 378.01 597.21 374.14 597.21 369.38C597.21 364.62 593.34 360.75 588.58 360.75H553.92C549.16 360.75 545.29 364.62 545.29 369.38C545.29 374.14 549.16 378.01 553.92 378.01ZM588.58 361.75C592.79 361.75 596.21 365.17 596.21 369.38C596.21 373.59 592.79 377.01 588.58 377.01H553.92C549.71 377.01 546.29 373.59 546.29 369.38C546.29 365.17 549.71 361.75 553.92 361.75H588.58Z" fill="white"/>
<path opacity="0.22" d="M369.82 78.38H410.73C417.993 78.38 423.88 84.2675 423.88 91.53C423.88 98.7926 417.993 104.68 410.73 104.68H369.82C362.557 104.68 356.67 98.7926 356.67 91.53C356.67 84.2675 362.557 78.38 369.82 78.38Z" fill="white"/>
<path d="M456.56 78.38H464.71C471.973 78.38 477.86 84.2675 477.86 91.53C477.86 98.7926 471.973 104.68 464.71 104.68H456.56C449.297 104.68 443.41 98.7926 443.41 91.53C443.41 84.2675 449.297 78.38 456.56 78.38Z" fill="white"/>
<path d="M598.49 14.74H620.48C624.38 14.74 627.55 11.58 627.55 7.66998C627.55 3.76998 624.39 0.599976 620.48 0.599976H598.49C594.59 0.599976 591.42 3.75998 591.42 7.66998C591.42 11.57 594.58 14.74 598.49 14.74Z" fill="white"/>
<path d="M555.43 273.89H634.1C639.96 273.89 644.73 269.12 644.73 263.26C644.73 257.4 639.96 252.63 634.1 252.63H555.43C549.57 252.63 544.8 257.4 544.8 263.26C544.8 269.12 549.57 273.89 555.43 273.89ZM634.09 253.64C639.4 253.64 643.72 257.96 643.72 263.27C643.72 268.58 639.4 272.9 634.09 272.9H555.42C550.11 272.9 545.79 268.58 545.79 263.27C545.79 257.96 550.11 253.64 555.42 253.64H634.09Z" fill="white"/>
<path d="M405.35 180.43H456.49C462.35 180.43 467.12 175.66 467.12 169.8C467.12 163.94 462.35 159.17 456.49 159.17H405.35C399.49 159.17 394.72 163.94 394.72 169.8C394.72 175.66 399.49 180.43 405.35 180.43ZM456.49 160.18C461.8 160.18 466.12 164.5 466.12 169.81C466.12 175.12 461.8 179.44 456.49 179.44H405.35C400.04 179.44 395.72 175.12 395.72 169.81C395.72 164.5 400.04 160.18 405.35 160.18H456.49Z" fill="white"/>
<path d="M578.1 115.47H627.88C634.59 115.47 640.06 110.01 640.06 103.29C640.06 96.57 634.6 91.11 627.88 91.11H578.1C571.39 91.11 565.92 96.57 565.92 103.29C565.92 110.01 571.38 115.47 578.1 115.47ZM627.88 92.12C634.04 92.12 639.06 97.13 639.06 103.3C639.06 109.47 634.05 114.48 627.88 114.48H578.1C571.94 114.48 566.92 109.47 566.92 103.3C566.92 97.13 571.93 92.12 578.1 92.12H627.88Z" fill="white"/>
<path d="M467.43 311.14H535.26C544.31 311.14 551.67 303.78 551.67 294.73C551.67 285.68 544.31 278.32 535.26 278.32H467.43C458.38 278.32 451.02 285.68 451.02 294.73C451.02 303.78 458.38 311.14 467.43 311.14ZM535.26 279.32C543.76 279.32 550.67 286.23 550.67 294.73C550.67 303.23 543.76 310.14 535.26 310.14H467.43C458.93 310.14 452.02 303.23 452.02 294.73C452.02 286.23 458.93 279.32 467.43 279.32H535.26Z" fill="white"/>
<path d="M405.35 180.43H456.49C462.35 180.43 467.12 175.66 467.12 169.8C467.12 163.94 462.35 159.17 456.49 159.17H405.35C399.49 159.17 394.72 163.94 394.72 169.8C394.72 175.66 399.49 180.43 405.35 180.43ZM456.49 160.18C461.8 160.18 466.12 164.5 466.12 169.81C466.12 175.12 461.8 179.44 456.49 179.44H405.35C400.04 179.44 395.72 175.12 395.72 169.81C395.72 164.5 400.04 160.18 405.35 160.18H456.49Z" fill="white"/>
<path d="M416.78 243.32C421.31 243.32 425 239.63 425 235.1C425 230.57 421.31 226.88 416.78 226.88C412.25 226.88 408.56 230.57 408.56 235.1C408.56 239.63 412.25 243.32 416.78 243.32ZM416.78 227.89C420.76 227.89 424 231.13 424 235.11C424 239.09 420.76 242.33 416.78 242.33C412.8 242.33 409.56 239.09 409.56 235.11C409.56 231.13 412.8 227.89 416.78 227.89Z" fill="white"/>
<path d="M490.75 163.14C493.42 163.14 495.59 160.97 495.59 158.3C495.59 155.63 493.42 153.46 490.75 153.46C488.08 153.46 485.91 155.63 485.91 158.3C485.91 160.97 488.08 163.14 490.75 163.14ZM490.75 154.47C492.87 154.47 494.59 156.19 494.59 158.31C494.59 160.43 492.87 162.15 490.75 162.15C488.63 162.15 486.91 160.43 486.91 158.31C486.91 156.19 488.63 154.47 490.75 154.47Z" fill="white"/>
<path d="M566.41 210.19H697.91V209.19H566.82L515.57 157.95H494.61V158.95H515.16L566.41 210.19Z" fill="white"/>
<path d="M415.95 208.82H543.86L524.15 189.11H396.24L415.95 208.82ZM541.44 207.82H416.36L398.65 190.11H523.73L541.44 207.82Z" fill="white"/>
<path d="M627.54 71.28H702.78L690.86 59.36H615.61L627.53 71.28H627.54ZM700.37 70.28H627.95L618.03 60.36H690.45L700.37 70.28Z" fill="white"/>
<path opacity="0.15" d="M690.65 59.86L701.58 70.78H627.74L616.82 59.86H690.65Z" fill="white"/>
<path d="M596.46 71.28H610.88L598.96 59.36H584.54L596.46 71.28ZM608.46 70.28H596.87L586.95 60.36H598.54L608.46 70.28Z" fill="white"/>
<path d="M422.69 268.68H468.47L457.7 257.91H411.92L422.69 268.68ZM466.05 267.68H423.1L414.33 258.91H457.28L466.05 267.68Z" fill="white"/>
<path d="M520.41 14.56H543.85L538 8.70996H514.56L520.41 14.56ZM541.44 13.56H520.83L516.98 9.70996H537.59L541.44 13.56Z" fill="white"/>
<path d="M394.17 268.68H407.3L396.53 257.91H383.4L394.17 268.68ZM404.89 267.68H394.59L385.82 258.91H396.12L404.89 267.68Z" fill="white"/>
<path d="M493.22 355.64H516.29L497.23 336.58H474.16L493.22 355.64ZM513.88 354.64H493.64L476.58 337.58H496.82L513.88 354.64Z" fill="white"/>
<path d="M464.65 355.64H476.76L457.7 336.58H445.59L464.65 355.64ZM474.35 354.64H465.07L448.01 337.58H457.29L474.35 354.64Z" fill="white"/>
</g>
<path style="mix-blend-mode:screen" d="M400.636 68.0955C394.059 61.5191 394.059 50.8566 400.636 44.2802C407.212 37.7038 417.875 37.7038 424.451 44.2802C431.027 50.8566 431.027 61.5191 424.451 68.0955C417.875 74.672 407.212 74.672 400.636 68.0955Z" fill="url(#paint4_radial_6476_6720)"/>
<path style="mix-blend-mode:screen" d="M528.257 143.02C521.681 136.444 521.681 125.781 528.257 119.205C534.834 112.628 545.496 112.628 552.073 119.205C558.649 125.781 558.649 136.444 552.073 143.02C545.496 149.597 534.834 149.597 528.257 143.02Z" fill="url(#paint5_radial_6476_6720)"/>
<path style="mix-blend-mode:screen" d="M489.34 223.54C481.017 223.54 474.27 216.793 474.27 208.47C474.27 200.147 481.017 193.4 489.34 193.4C497.663 193.4 504.41 200.147 504.41 208.47C504.41 216.793 497.663 223.54 489.34 223.54Z" fill="url(#paint6_radial_6476_6720)"/>
<path style="mix-blend-mode:screen" d="M590.004 248.464C581.754 244.17 578.548 234.001 582.843 225.751C587.137 217.501 597.306 214.295 605.556 218.59C613.805 222.884 617.012 233.053 612.717 241.303C608.423 249.552 598.254 252.759 590.004 248.464Z" fill="url(#paint7_radial_6476_6720)"/>
<path style="mix-blend-mode:screen" d="M402.06 343.877C393.483 340.28 389.446 330.412 393.043 321.835C396.639 313.258 406.508 309.221 415.085 312.817C423.662 316.414 427.699 326.282 424.102 334.859C420.506 343.436 410.637 347.473 402.06 343.877Z" fill="url(#paint8_radial_6476_6720)"/>
<path style="mix-blend-mode:screen" d="M428.484 240.258C426.332 231.21 431.922 222.13 440.97 219.978C450.018 217.826 459.097 223.416 461.25 232.464C463.402 241.512 457.812 250.591 448.764 252.744C439.716 254.896 430.636 249.306 428.484 240.258Z" fill="url(#paint9_radial_6476_6720)"/>
<path style="mix-blend-mode:screen" d="M389.199 136.733C386.199 124.157 393.961 111.53 406.537 108.529C419.113 105.528 431.74 113.291 434.741 125.867C437.742 138.442 429.979 151.07 417.403 154.07C404.827 157.071 392.2 149.309 389.199 136.733Z" fill="url(#paint10_radial_6476_6720)"/>
<path style="mix-blend-mode:screen" d="M578.09 65.16C564.924 65.16 554.25 54.4865 554.25 41.32C554.25 28.1535 564.924 17.48 578.09 17.48C591.257 17.48 601.93 28.1535 601.93 41.32C601.93 54.4865 591.257 65.16 578.09 65.16Z" fill="url(#paint11_radial_6476_6720)"/>
<path style="mix-blend-mode:color-dodge" d="M139.106 305.683C134.652 300.753 135.037 293.146 139.967 288.692C144.897 284.237 152.504 284.623 156.958 289.552C161.413 294.482 161.027 302.089 156.098 306.544C151.168 310.998 143.561 310.613 139.106 305.683Z" fill="url(#paint12_radial_6476_6720)"/>
<path style="mix-blend-mode:color-dodge" d="M187.531 292.316C186.76 287.847 189.757 283.6 194.225 282.829C198.693 282.058 202.941 285.055 203.712 289.524C204.483 293.992 201.485 298.239 197.017 299.01C192.549 299.781 188.302 296.784 187.531 292.316Z" fill="url(#paint13_radial_6476_6720)"/>
<path style="mix-blend-mode:color-dodge" d="M223.928 344.59C219.634 339.52 220.262 331.929 225.331 327.635C230.401 323.34 237.992 323.968 242.286 329.038C246.581 334.107 245.953 341.698 240.883 345.993C235.814 350.287 228.223 349.659 223.928 344.59Z" fill="url(#paint14_radial_6476_6720)"/>
<path style="mix-blend-mode:color-dodge" d="M229.158 300.111C227.624 293.647 231.621 287.163 238.085 285.629C244.55 284.095 251.034 288.091 252.568 294.556C254.102 301.02 250.105 307.504 243.641 309.039C237.176 310.573 230.692 306.576 229.158 300.111Z" fill="url(#paint15_radial_6476_6720)"/>
<path style="mix-blend-mode:color-dodge" d="M284.202 248.234C279.504 243.536 279.504 235.919 284.202 231.221C288.9 226.523 296.517 226.523 301.215 231.221C305.913 235.919 305.913 243.536 301.215 248.234C296.517 252.932 288.9 252.932 284.202 248.234Z" fill="url(#paint16_radial_6476_6720)"/>
<path style="mix-blend-mode:color-dodge" d="M522.65 272.38C517.812 272.38 513.89 268.458 513.89 263.62C513.89 258.782 517.812 254.86 522.65 254.86C527.488 254.86 531.41 258.782 531.41 263.62C531.41 268.458 527.488 272.38 522.65 272.38Z" fill="url(#paint17_radial_6476_6720)"/>
<path style="mix-blend-mode:color-dodge" d="M448.99 177.15C444.152 177.15 440.23 173.228 440.23 168.39C440.23 163.552 444.152 159.63 448.99 159.63C453.828 159.63 457.75 163.552 457.75 168.39C457.75 173.228 453.828 177.15 448.99 177.15Z" fill="url(#paint18_radial_6476_6720)"/>
<path style="mix-blend-mode:color-dodge" d="M602.94 254.795C602.165 250.019 605.407 245.519 610.183 244.744C614.958 243.969 619.458 247.212 620.233 251.987C621.009 256.763 617.766 261.263 612.99 262.038C608.215 262.813 603.715 259.57 602.94 254.795Z" fill="url(#paint19_radial_6476_6720)"/>
<path style="mix-blend-mode:color-dodge" d="M572.021 255.294C570.955 250.575 573.917 245.885 578.636 244.819C583.355 243.753 588.045 246.715 589.111 251.434C590.177 256.153 587.216 260.843 582.496 261.909C577.777 262.975 573.088 260.013 572.021 255.294Z" fill="url(#paint20_radial_6476_6720)"/>
<path style="mix-blend-mode:color-dodge" d="M516.61 319.73C511.772 319.73 507.85 315.808 507.85 310.97C507.85 306.132 511.772 302.21 516.61 302.21C521.448 302.21 525.37 306.132 525.37 310.97C525.37 315.808 521.448 319.73 516.61 319.73Z" fill="url(#paint21_radial_6476_6720)"/>
<path style="mix-blend-mode:color-dodge" d="M479.78 319.73C474.942 319.73 471.02 315.808 471.02 310.97C471.02 306.132 474.942 302.21 479.78 302.21C484.618 302.21 488.54 306.132 488.54 310.97C488.54 315.808 484.618 319.73 479.78 319.73Z" fill="url(#paint22_radial_6476_6720)"/>
<path style="mix-blend-mode:color-dodge" d="M443.06 367.57C438.222 367.57 434.3 363.648 434.3 358.81C434.3 353.972 438.222 350.05 443.06 350.05C447.898 350.05 451.82 353.972 451.82 358.81C451.82 363.648 447.898 367.57 443.06 367.57Z" fill="url(#paint23_radial_6476_6720)"/>
<path style="mix-blend-mode:color-dodge" d="M604.936 354.432C604.161 349.657 607.403 345.157 612.179 344.382C616.954 343.606 621.454 346.849 622.229 351.625C623.005 356.4 619.762 360.9 614.986 361.675C610.211 362.45 605.711 359.208 604.936 354.432Z" fill="url(#paint24_radial_6476_6720)"/>
<path style="mix-blend-mode:color-dodge" d="M354.608 57.3518C353.831 52.5765 357.073 48.0757 361.848 47.2989C366.623 46.522 371.124 49.7634 371.901 54.5386C372.678 59.3138 369.436 63.8147 364.661 64.5915C359.886 65.3684 355.385 62.127 354.608 57.3518Z" fill="url(#paint25_radial_6476_6720)"/>
<path style="mix-blend-mode:color-dodge" d="M330.025 57.9653C328.91 53.2577 331.822 48.5371 336.53 47.4217C341.237 46.3062 345.958 49.2183 347.073 53.926C348.189 58.6336 345.277 63.3542 340.569 64.4697C335.861 65.5851 331.141 62.673 330.025 57.9653Z" fill="url(#paint26_radial_6476_6720)"/>
<path style="mix-blend-mode:color-dodge" d="M552.484 57.3631C551.709 52.5876 554.952 48.0879 559.727 47.3127C564.503 46.5375 569.002 49.7804 569.778 54.5559C570.553 59.3314 567.31 63.8312 562.534 64.6063C557.759 65.3815 553.259 62.1386 552.484 57.3631Z" fill="url(#paint27_radial_6476_6720)"/>
<path style="mix-blend-mode:color-dodge" d="M616.88 100.21C612.042 100.21 608.12 96.288 608.12 91.4499C608.12 86.6119 612.042 82.6899 616.88 82.6899C621.718 82.6899 625.64 86.6119 625.64 91.4499C625.64 96.288 621.718 100.21 616.88 100.21Z" fill="url(#paint28_radial_6476_6720)"/>
<path style="mix-blend-mode:color-dodge" d="M592.68 123.33C587.842 123.33 583.92 119.408 583.92 114.57C583.92 109.732 587.842 105.81 592.68 105.81C597.518 105.81 601.44 109.732 601.44 114.57C601.44 119.408 597.518 123.33 592.68 123.33Z" fill="url(#paint29_radial_6476_6720)"/>
<path style="mix-blend-mode:color-dodge" d="M486.79 139.56C481.952 139.56 478.03 135.638 478.03 130.8C478.03 125.962 481.952 122.04 486.79 122.04C491.628 122.04 495.55 125.962 495.55 130.8C495.55 135.638 491.628 139.56 486.79 139.56Z" fill="url(#paint30_radial_6476_6720)"/>
<path style="mix-blend-mode:color-dodge" d="M610.32 49.48C605.482 49.48 601.56 45.558 601.56 40.72C601.56 35.8819 605.482 31.96 610.32 31.96C615.158 31.96 619.08 35.8819 619.08 40.72C619.08 45.558 615.158 49.48 610.32 49.48Z" fill="url(#paint31_radial_6476_6720)"/>
<path style="mix-blend-mode:color-dodge" d="M524.831 87.0229C523.719 82.3143 526.636 77.5963 531.344 76.4849C536.053 75.3736 540.771 78.2898 541.882 82.9984C542.993 87.7071 540.077 92.4251 535.369 93.5364C530.66 94.6478 525.942 91.7316 524.831 87.0229Z" fill="url(#paint32_radial_6476_6720)"/>
<path style="mix-blend-mode:color-dodge" d="M636.81 39.39C631.972 39.39 628.05 35.468 628.05 30.63C628.05 25.792 631.972 21.87 636.81 21.87C641.648 21.87 645.57 25.792 645.57 30.63C645.57 35.468 641.648 39.39 636.81 39.39Z" fill="url(#paint33_radial_6476_6720)"/>
<path style="mix-blend-mode:color-dodge" d="M490.77 173.16C490.77 176.9 493.8 179.93 497.54 179.93C501.28 179.93 504.31 176.9 504.31 173.16C504.31 169.42 501.28 166.39 497.54 166.39C493.8 166.39 490.77 169.42 490.77 173.16Z" fill="url(#paint34_radial_6476_6720)"/>
<path style="mix-blend-mode:color-dodge" d="M477.84 173.16C477.84 176.9 480.87 179.93 484.61 179.93C488.35 179.93 491.38 176.9 491.38 173.16C491.38 169.42 488.35 166.39 484.61 166.39C480.87 166.39 477.84 169.42 477.84 173.16Z" fill="url(#paint35_radial_6476_6720)"/>
<path style="mix-blend-mode:color-dodge" d="M552.62 112.68C547.782 112.68 543.86 108.758 543.86 103.92C543.86 99.082 547.782 95.16 552.62 95.16C557.458 95.16 561.38 99.082 561.38 103.92C561.38 108.758 557.458 112.68 552.62 112.68Z" fill="url(#paint36_radial_6476_6720)"/>
<path style="mix-blend-mode:color-dodge" d="M650.17 112.68C645.332 112.68 641.41 108.758 641.41 103.92C641.41 99.082 645.332 95.16 650.17 95.16C655.008 95.16 658.93 99.082 658.93 103.92C658.93 108.758 655.008 112.68 650.17 112.68Z" fill="url(#paint37_radial_6476_6720)"/>
<path style="mix-blend-mode:color-dodge" d="M581.78 303.57C576.942 303.57 573.02 299.648 573.02 294.81C573.02 289.972 576.942 286.05 581.78 286.05C586.618 286.05 590.54 289.972 590.54 294.81C590.54 299.648 586.618 303.57 581.78 303.57Z" fill="url(#paint38_radial_6476_6720)"/>
<path style="mix-blend-mode:color-dodge" d="M630.05 303.57C625.212 303.57 621.29 299.648 621.29 294.81C621.29 289.972 625.212 286.05 630.05 286.05C634.888 286.05 638.81 289.972 638.81 294.81C638.81 299.648 634.888 303.57 630.05 303.57Z" fill="url(#paint39_radial_6476_6720)"/>
<path style="mix-blend-mode:color-dodge" d="M607.87 303.57C603.032 303.57 599.11 299.648 599.11 294.81C599.11 289.972 603.032 286.05 607.87 286.05C612.708 286.05 616.63 289.972 616.63 294.81C616.63 299.648 612.708 303.57 607.87 303.57Z" fill="url(#paint40_radial_6476_6720)"/>
<path style="mix-blend-mode:color-dodge" d="M393.83 206.2C389.848 206.2 386.62 202.972 386.62 198.99C386.62 195.008 389.848 191.78 393.83 191.78C397.812 191.78 401.04 195.008 401.04 198.99C401.04 202.972 397.812 206.2 393.83 206.2Z" fill="url(#paint41_radial_6476_6720)"/>
<path style="mix-blend-mode:color-dodge" d="M528.91 31.07C528.91 35.05 532.14 38.28 536.12 38.28C540.1 38.28 543.33 35.05 543.33 31.07C543.33 27.09 540.1 23.86 536.12 23.86C532.14 23.86 528.91 27.09 528.91 31.07Z" fill="url(#paint42_radial_6476_6720)"/>
<path style="mix-blend-mode:color-dodge" d="M321.671 199.495C320.152 193.027 324.165 186.553 330.633 185.034C337.101 183.516 343.576 187.529 345.094 193.997C346.612 200.465 342.6 206.939 336.131 208.458C329.663 209.976 323.189 205.963 321.671 199.495Z" fill="url(#paint43_radial_6476_6720)"/>
<path style="mix-blend-mode:color-dodge" d="M344.539 265.892C343.005 259.427 347.002 252.943 353.466 251.409C359.931 249.875 366.415 253.872 367.949 260.336C369.483 266.801 365.486 273.285 359.022 274.819C352.557 276.353 346.073 272.356 344.539 265.892Z" fill="url(#paint44_radial_6476_6720)"/>
<path style="mix-blend-mode:color-dodge" d="M334.576 320.114C332.975 313.666 336.905 307.141 343.353 305.54C349.802 303.94 356.327 307.869 357.927 314.318C359.528 320.766 355.598 327.291 349.149 328.892C342.701 330.492 336.176 326.562 334.576 320.114Z" fill="url(#paint45_radial_6476_6720)"/>
<path style="mix-blend-mode:color-dodge" d="M191.435 396.208C189.695 389.796 193.481 383.187 199.893 381.446C206.305 379.705 212.914 383.492 214.655 389.904C216.396 396.315 212.609 402.925 206.197 404.665C199.785 406.406 193.176 402.62 191.435 396.208Z" fill="url(#paint46_radial_6476_6720)"/>
<path style="mix-blend-mode:color-dodge" d="M100.328 381.803C95.6299 377.105 95.6299 369.488 100.328 364.79C105.026 360.092 112.643 360.092 117.341 364.79C122.039 369.488 122.039 377.105 117.341 381.803C112.643 386.501 105.026 386.501 100.328 381.803Z" fill="url(#paint47_radial_6476_6720)"/>
<path style="mix-blend-mode:color-dodge" d="M150.92 398.23C146.222 393.532 146.222 385.915 150.92 381.217C155.618 376.519 163.235 376.519 167.933 381.217C172.631 385.915 172.631 393.532 167.933 398.23C163.235 402.928 155.618 402.928 150.92 398.23Z" fill="url(#paint48_radial_6476_6720)"/>
<path style="mix-blend-mode:color-dodge" d="M180.83 330.18C177.428 330.18 174.67 327.422 174.67 324.02C174.67 320.618 177.428 317.86 180.83 317.86C184.232 317.86 186.99 320.618 186.99 324.02C186.99 327.422 184.232 330.18 180.83 330.18Z" fill="url(#paint49_radial_6476_6720)"/>
<path style="mix-blend-mode:color-dodge" d="M48.231 317.603C43.533 312.905 43.533 305.288 48.231 300.59C52.929 295.892 60.546 295.892 65.244 300.59C69.942 305.288 69.942 312.905 65.244 317.603C60.546 322.301 52.929 322.301 48.231 317.603Z" fill="url(#paint50_radial_6476_6720)"/>
<path style="mix-blend-mode:color-dodge" d="M261.904 385.285C257.206 380.587 257.206 372.97 261.904 368.272C266.602 363.574 274.219 363.574 278.917 368.272C283.615 372.97 283.615 380.587 278.917 385.285C274.219 389.983 266.602 389.983 261.904 385.285Z" fill="url(#paint51_radial_6476_6720)"/>
<path style="mix-blend-mode:color-dodge" d="M383.71 229.13C378.927 229.13 375.05 225.253 375.05 220.47C375.05 215.687 378.927 211.81 383.71 211.81C388.493 211.81 392.37 215.687 392.37 220.47C392.37 225.253 388.493 229.13 383.71 229.13Z" fill="url(#paint52_radial_6476_6720)"/>
<path style="mix-blend-mode:color-dodge" d="M306.2 170.01C306.2 173.37 308.93 176.1 312.29 176.1C315.65 176.1 318.38 173.37 318.38 170.01C318.38 166.65 315.65 163.92 312.29 163.92C308.93 163.92 306.2 166.65 306.2 170.01Z" fill="url(#paint53_radial_6476_6720)"/>
<path style="mix-blend-mode:color-dodge" d="M260.04 126.29C260.04 129.65 262.77 132.38 266.13 132.38C269.49 132.38 272.22 129.65 272.22 126.29C272.22 122.93 269.49 120.2 266.13 120.2C262.77 120.2 260.04 122.93 260.04 126.29Z" fill="url(#paint54_radial_6476_6720)"/>
<path style="mix-blend-mode:color-dodge" d="M259.88 152.34C259.88 155.7 262.61 158.43 265.97 158.43C269.33 158.43 272.06 155.7 272.06 152.34C272.06 148.98 269.33 146.25 265.97 146.25C262.61 146.25 259.88 148.98 259.88 152.34Z" fill="url(#paint55_radial_6476_6720)"/>
<path style="mix-blend-mode:color-dodge" d="M76.33 153.47C76.33 156.83 79.06 159.56 82.42 159.56C85.78 159.56 88.51 156.83 88.51 153.47C88.51 150.11 85.78 147.38 82.42 147.38C79.06 147.38 76.33 150.11 76.33 153.47Z" fill="url(#paint56_radial_6476_6720)"/>
<path style="mix-blend-mode:color-dodge" d="M116.37 138.44C113.007 138.44 110.28 135.713 110.28 132.35C110.28 128.987 113.007 126.26 116.37 126.26C119.733 126.26 122.46 128.987 122.46 132.35C122.46 135.713 119.733 138.44 116.37 138.44Z" fill="url(#paint57_radial_6476_6720)"/>
<path style="mix-blend-mode:color-dodge" d="M28.5201 271.32C28.5201 274.68 31.25 277.41 34.61 277.41C37.97 277.41 40.7001 274.68 40.7001 271.32C40.7001 267.96 37.97 265.23 34.61 265.23C31.25 265.23 28.5201 267.96 28.5201 271.32Z" fill="url(#paint58_radial_6476_6720)"/>
<path style="mix-blend-mode:color-dodge" d="M92.6801 247.6C92.6801 250.96 95.4101 253.69 98.7701 253.69C102.13 253.69 104.86 250.96 104.86 247.6C104.86 244.24 102.13 241.51 98.7701 241.51C95.4101 241.51 92.6801 244.24 92.6801 247.6Z" fill="url(#paint59_radial_6476_6720)"/>
<path style="mix-blend-mode:color-dodge" d="M36.7001 286.55C36.7001 289.91 39.4301 292.64 42.7901 292.64C46.1501 292.64 48.8801 289.91 48.8801 286.55C48.8801 283.19 46.1501 280.46 42.7901 280.46C39.4301 280.46 36.7001 283.19 36.7001 286.55Z" fill="url(#paint60_radial_6476_6720)"/>
<path style="mix-blend-mode:color-dodge" d="M281.15 123.22C281.15 126.58 283.88 129.31 287.24 129.31C290.6 129.31 293.33 126.58 293.33 123.22C293.33 119.86 290.6 117.13 287.24 117.13C283.88 117.13 281.15 119.86 281.15 123.22Z" fill="url(#paint61_radial_6476_6720)"/>
<path style="mix-blend-mode:color-dodge" d="M244.684 139.234C241.798 136.348 241.798 131.669 244.684 128.783C247.57 125.897 252.249 125.897 255.135 128.783C258.021 131.669 258.021 136.348 255.135 139.234C252.249 142.12 247.57 142.12 244.684 139.234Z" fill="url(#paint62_radial_6476_6720)"/>
<path style="mix-blend-mode:color-dodge" d="M66.2075 242.633C64.6734 236.168 68.6702 229.684 75.1347 228.15C81.5991 226.616 88.0832 230.613 89.6173 237.077C91.1514 243.542 87.1545 250.026 80.6901 251.56C74.2256 253.094 67.7416 249.097 66.2075 242.633Z" fill="url(#paint63_radial_6476_6720)"/>
<path style="mix-blend-mode:color-dodge" d="M66.0217 186.831C61.3237 182.133 61.3236 174.516 66.0217 169.818C70.7197 165.12 78.3367 165.12 83.0347 169.818C87.7327 174.516 87.7327 182.133 83.0346 186.831C78.3366 191.529 70.7197 191.529 66.0217 186.831Z" fill="url(#paint64_radial_6476_6720)"/>
<path style="mix-blend-mode:color-dodge" d="M27.5976 114.362C21.1346 111.708 18.0463 104.318 20.6996 97.8553C23.3528 91.3923 30.743 88.304 37.206 90.9573C43.669 93.6106 46.7573 101.001 44.104 107.464C41.4507 113.927 34.0606 117.015 27.5976 114.362Z" fill="url(#paint65_radial_6476_6720)"/>
<path style="mix-blend-mode:color-dodge" d="M185.69 25.3C178.704 25.3 173.04 19.6364 173.04 12.65C173.04 5.6636 178.704 0 185.69 0C192.676 0 198.34 5.6636 198.34 12.65C198.34 19.6364 192.676 25.3 185.69 25.3Z" fill="url(#paint66_radial_6476_6720)"/>
<path style="mix-blend-mode:color-dodge" d="M11.04 161.41C4.99246 161.41 0.0900269 156.508 0.0900269 150.46C0.0900269 144.413 4.99246 139.51 11.04 139.51C17.0875 139.51 21.99 144.413 21.99 150.46C21.99 156.508 17.0875 161.41 11.04 161.41Z" fill="url(#paint67_radial_6476_6720)"/>
<path style="mix-blend-mode:color-dodge" d="M42.6801 328.69C36.6326 328.69 31.7301 323.788 31.7301 317.74C31.7301 311.693 36.6326 306.79 42.6801 306.79C48.7276 306.79 53.6301 311.693 53.6301 317.74C53.6301 323.788 48.7276 328.69 42.6801 328.69Z" fill="url(#paint68_radial_6476_6720)"/>
<path style="mix-blend-mode:color-dodge" d="M86.31 370.67C80.2625 370.67 75.36 365.768 75.36 359.72C75.36 353.673 80.2625 348.77 86.31 348.77C92.3575 348.77 97.26 353.673 97.26 359.72C97.26 365.768 92.3575 370.67 86.31 370.67Z" fill="url(#paint69_radial_6476_6720)"/>
<path style="mix-blend-mode:color-dodge" d="M110.36 298.39C106.571 298.39 103.5 295.319 103.5 291.53C103.5 287.741 106.571 284.67 110.36 284.67C114.149 284.67 117.22 287.741 117.22 291.53C117.22 295.319 114.149 298.39 110.36 298.39Z" fill="url(#paint70_radial_6476_6720)"/>
<path style="mix-blend-mode:color-dodge" d="M220.86 58.66C215.851 58.66 211.79 54.5992 211.79 49.59C211.79 44.5808 215.851 40.52 220.86 40.52C225.869 40.52 229.93 44.5808 229.93 49.59C229.93 54.5992 225.869 58.66 220.86 58.66Z" fill="url(#paint71_radial_6476_6720)"/>
<path style="mix-blend-mode:color-dodge" d="M263.55 34.11C258.541 34.11 254.48 30.0492 254.48 25.04C254.48 20.0307 258.541 15.97 263.55 15.97C268.559 15.97 272.62 20.0307 272.62 25.04C272.62 30.0492 268.559 34.11 263.55 34.11Z" fill="url(#paint72_radial_6476_6720)"/>
<rect width="361" height="664" transform="matrix(-1 0 0 1 714 -129)" fill="url(#paint73_linear_6476_6720)"/>
</g>
<defs>
<radialGradient id="paint0_radial_6476_6720" cx="0" cy="0" r="1" gradientUnits="userSpaceOnUse" gradientTransform="translate(617.35 210.678) rotate(180) scale(66.69 2.6676)">
<stop stop-color="white"/>
<stop offset="1"/>
</radialGradient>
<radialGradient id="paint1_radial_6476_6720" cx="0" cy="0" r="1" gradientUnits="userSpaceOnUse" gradientTransform="translate(488.28 334.387) rotate(180) scale(66.69 2.6676)">
<stop stop-color="white"/>
<stop offset="1"/>
</radialGradient>
<radialGradient id="paint2_radial_6476_6720" cx="0" cy="0" r="1" gradientUnits="userSpaceOnUse" gradientTransform="translate(627.63 128.898) rotate(180) scale(66.69 2.6676)">
<stop stop-color="white"/>
<stop offset="1"/>
</radialGradient>
<radialGradient id="paint3_radial_6476_6720" cx="0" cy="0" r="1" gradientUnits="userSpaceOnUse" gradientTransform="translate(477.66 48.8511) rotate(180) scale(36.08 1.4432)">
<stop stop-color="white"/>
<stop offset="1"/>
</radialGradient>
<radialGradient id="paint4_radial_6476_6720" cx="0" cy="0" r="1" gradientUnits="userSpaceOnUse" gradientTransform="translate(412.544 56.1841) rotate(180) scale(16.84)">
<stop stop-color="#007EE9"/>
<stop offset="1"/>
</radialGradient>
<radialGradient id="paint5_radial_6476_6720" cx="0" cy="0" r="1" gradientUnits="userSpaceOnUse" gradientTransform="translate(540.17 131.111) rotate(180) scale(16.84)">
<stop stop-color="#007EE9"/>
<stop offset="1"/>
</radialGradient>
<radialGradient id="paint6_radial_6476_6720" cx="0" cy="0" r="1" gradientUnits="userSpaceOnUse" gradientTransform="translate(489.34 208.47) rotate(180) scale(15.07)">
<stop stop-color="#007EE9"/>
<stop offset="1"/>
</radialGradient>
<radialGradient id="paint7_radial_6476_6720" cx="0" cy="0" r="1" gradientUnits="userSpaceOnUse" gradientTransform="translate(597.769 233.516) rotate(180) scale(16.84)">
<stop stop-color="#007EE9"/>
<stop offset="1"/>
</radialGradient>
<radialGradient id="paint8_radial_6476_6720" cx="0" cy="0" r="1" gradientUnits="userSpaceOnUse" gradientTransform="translate(408.596 328.365) rotate(180) scale(16.84)">
<stop stop-color="#007EE9"/>
<stop offset="1"/>
</radialGradient>
<radialGradient id="paint9_radial_6476_6720" cx="0" cy="0" r="1" gradientUnits="userSpaceOnUse" gradientTransform="translate(444.877 236.364) rotate(-180) scale(0.5)">
<stop stop-color="#007EE9"/>
<stop offset="1"/>
</radialGradient>
<radialGradient id="paint10_radial_6476_6720" cx="0" cy="0" r="1" gradientUnits="userSpaceOnUse" gradientTransform="translate(411.974 131.299) rotate(180) scale(23.41)">
<stop stop-color="#007EE9"/>
<stop offset="1"/>
</radialGradient>
<radialGradient id="paint11_radial_6476_6720" cx="0" cy="0" r="1" gradientUnits="userSpaceOnUse" gradientTransform="translate(578.09 41.32) rotate(180) scale(23.84 23.84)">
<stop stop-color="#007EE9"/>
<stop offset="1"/>
</radialGradient>
<radialGradient id="paint12_radial_6476_6720" cx="0" cy="0" r="1" gradientUnits="userSpaceOnUse" gradientTransform="translate(148.007 297.575) rotate(180) scale(12.03)">
<stop stop-color="white"/>
<stop offset="0.01" stop-color="#F9F9F9"/>
<stop offset="0.13" stop-color="#BFBFBF"/>
<stop offset="0.25" stop-color="#8C8C8C"/>
<stop offset="0.37" stop-color="#616161"/>
<stop offset="0.5" stop-color="#3E3E3E"/>
<stop offset="0.62" stop-color="#222222"/>
<stop offset="0.74" stop-color="#0F0F0F"/>
<stop offset="0.87" stop-color="#030303"/>
<stop offset="1"/>
</radialGradient>
<radialGradient id="paint13_radial_6476_6720" cx="0" cy="0" r="1" gradientUnits="userSpaceOnUse" gradientTransform="translate(195.644 290.944) rotate(180) scale(8.20999)">
<stop stop-color="white"/>
<stop offset="0.01" stop-color="#F9F9F9"/>
<stop offset="0.13" stop-color="#BFBFBF"/>
<stop offset="0.25" stop-color="#8C8C8C"/>
<stop offset="0.37" stop-color="#616161"/>
<stop offset="0.5" stop-color="#3E3E3E"/>
<stop offset="0.62" stop-color="#222222"/>
<stop offset="0.74" stop-color="#0F0F0F"/>
<stop offset="0.87" stop-color="#030303"/>
<stop offset="1"/>
</radialGradient>
<radialGradient id="paint14_radial_6476_6720" cx="0" cy="0" r="1" gradientUnits="userSpaceOnUse" gradientTransform="translate(233.114 336.827) rotate(180) scale(12.03)">
<stop stop-color="white"/>
<stop offset="0.01" stop-color="#F9F9F9"/>
<stop offset="0.13" stop-color="#BFBFBF"/>
<stop offset="0.25" stop-color="#8C8C8C"/>
<stop offset="0.37" stop-color="#616161"/>
<stop offset="0.5" stop-color="#3E3E3E"/>
<stop offset="0.62" stop-color="#222222"/>
<stop offset="0.74" stop-color="#0F0F0F"/>
<stop offset="0.87" stop-color="#030303"/>
<stop offset="1"/>
</radialGradient>
<radialGradient id="paint15_radial_6476_6720" cx="0" cy="0" r="1" gradientUnits="userSpaceOnUse" gradientTransform="translate(240.876 297.354) rotate(180) scale(12.03)">
<stop stop-color="white"/>
<stop offset="0.01" stop-color="#F9F9F9"/>
<stop offset="0.13" stop-color="#BFBFBF"/>
<stop offset="0.25" stop-color="#8C8C8C"/>
<stop offset="0.37" stop-color="#616161"/>
<stop offset="0.5" stop-color="#3E3E3E"/>
<stop offset="0.62" stop-color="#222222"/>
<stop offset="0.74" stop-color="#0F0F0F"/>
<stop offset="0.87" stop-color="#030303"/>
<stop offset="1"/>
</radialGradient>
<radialGradient id="paint16_radial_6476_6720" cx="0" cy="0" r="1" gradientUnits="userSpaceOnUse" gradientTransform="translate(292.705 239.727) rotate(180) scale(12.03)">
<stop stop-color="white"/>
<stop offset="0.01" stop-color="#F9F9F9"/>
<stop offset="0.13" stop-color="#BFBFBF"/>
<stop offset="0.25" stop-color="#8C8C8C"/>
<stop offset="0.37" stop-color="#616161"/>
<stop offset="0.5" stop-color="#3E3E3E"/>
<stop offset="0.62" stop-color="#222222"/>
<stop offset="0.74" stop-color="#0F0F0F"/>
<stop offset="0.87" stop-color="#030303"/>
<stop offset="1"/>
</radialGradient>
<radialGradient id="paint17_radial_6476_6720" cx="0" cy="0" r="1" gradientUnits="userSpaceOnUse" gradientTransform="translate(522.65 263.62) rotate(180) scale(8.76)">
<stop stop-color="white"/>
<stop offset="0.01" stop-color="#F9F9F9"/>
<stop offset="0.13" stop-color="#BFBFBF"/>
<stop offset="0.25" stop-color="#8C8C8C"/>
<stop offset="0.37" stop-color="#616161"/>
<stop offset="0.5" stop-color="#3E3E3E"/>
<stop offset="0.62" stop-color="#222222"/>
<stop offset="0.74" stop-color="#0F0F0F"/>
<stop offset="0.87" stop-color="#030303"/>
<stop offset="1"/>
</radialGradient>
<radialGradient id="paint18_radial_6476_6720" cx="0" cy="0" r="1" gradientUnits="userSpaceOnUse" gradientTransform="translate(448.99 168.39) rotate(180) scale(8.75999)">
<stop stop-color="white"/>
<stop offset="0.01" stop-color="#F9F9F9"/>
<stop offset="0.13" stop-color="#BFBFBF"/>
<stop offset="0.25" stop-color="#8C8C8C"/>
<stop offset="0.37" stop-color="#616161"/>
<stop offset="0.5" stop-color="#3E3E3E"/>
<stop offset="0.62" stop-color="#222222"/>
<stop offset="0.74" stop-color="#0F0F0F"/>
<stop offset="0.87" stop-color="#030303"/>
<stop offset="1"/>
</radialGradient>
<radialGradient id="paint19_radial_6476_6720" cx="0" cy="0" r="1" gradientUnits="userSpaceOnUse" gradientTransform="translate(611.58 253.381) rotate(180) scale(8.76001 8.76)">
<stop stop-color="white"/>
<stop offset="0.01" stop-color="#F9F9F9"/>
<stop offset="0.13" stop-color="#BFBFBF"/>
<stop offset="0.25" stop-color="#8C8C8C"/>
<stop offset="0.37" stop-color="#616161"/>
<stop offset="0.5" stop-color="#3E3E3E"/>
<stop offset="0.62" stop-color="#222222"/>
<stop offset="0.74" stop-color="#0F0F0F"/>
<stop offset="0.87" stop-color="#030303"/>
<stop offset="1"/>
</radialGradient>
<radialGradient id="paint20_radial_6476_6720" cx="0" cy="0" r="1" gradientUnits="userSpaceOnUse" gradientTransform="translate(580.574 253.372) rotate(180) scale(8.76001 8.76)">
<stop stop-color="white"/>
<stop offset="0.01" stop-color="#F9F9F9"/>
<stop offset="0.13" stop-color="#BFBFBF"/>
<stop offset="0.25" stop-color="#8C8C8C"/>
<stop offset="0.37" stop-color="#616161"/>
<stop offset="0.5" stop-color="#3E3E3E"/>
<stop offset="0.62" stop-color="#222222"/>
<stop offset="0.74" stop-color="#0F0F0F"/>
<stop offset="0.87" stop-color="#030303"/>
<stop offset="1"/>
</radialGradient>
<radialGradient id="paint21_radial_6476_6720" cx="0" cy="0" r="1" gradientUnits="userSpaceOnUse" gradientTransform="translate(516.61 310.97) rotate(180) scale(8.75999 8.76001)">
<stop stop-color="white"/>
<stop offset="0.01" stop-color="#F9F9F9"/>
<stop offset="0.13" stop-color="#BFBFBF"/>
<stop offset="0.25" stop-color="#8C8C8C"/>
<stop offset="0.37" stop-color="#616161"/>
<stop offset="0.5" stop-color="#3E3E3E"/>
<stop offset="0.62" stop-color="#222222"/>
<stop offset="0.74" stop-color="#0F0F0F"/>
<stop offset="0.87" stop-color="#030303"/>
<stop offset="1"/>
</radialGradient>
<radialGradient id="paint22_radial_6476_6720" cx="0" cy="0" r="1" gradientUnits="userSpaceOnUse" gradientTransform="translate(479.78 310.97) rotate(180) scale(8.75999 8.76001)">
<stop stop-color="white"/>
<stop offset="0.01" stop-color="#F9F9F9"/>
<stop offset="0.13" stop-color="#BFBFBF"/>
<stop offset="0.25" stop-color="#8C8C8C"/>
<stop offset="0.37" stop-color="#616161"/>
<stop offset="0.5" stop-color="#3E3E3E"/>
<stop offset="0.62" stop-color="#222222"/>
<stop offset="0.74" stop-color="#0F0F0F"/>
<stop offset="0.87" stop-color="#030303"/>
<stop offset="1"/>
</radialGradient>
<radialGradient id="paint23_radial_6476_6720" cx="0" cy="0" r="1" gradientUnits="userSpaceOnUse" gradientTransform="translate(443.06 358.81) rotate(180) scale(8.76001)">
<stop stop-color="white"/>
<stop offset="0.01" stop-color="#F9F9F9"/>
<stop offset="0.13" stop-color="#BFBFBF"/>
<stop offset="0.25" stop-color="#8C8C8C"/>
<stop offset="0.37" stop-color="#616161"/>
<stop offset="0.5" stop-color="#3E3E3E"/>
<stop offset="0.62" stop-color="#222222"/>
<stop offset="0.74" stop-color="#0F0F0F"/>
<stop offset="0.87" stop-color="#030303"/>
<stop offset="1"/>
</radialGradient>
<radialGradient id="paint24_radial_6476_6720" cx="0" cy="0" r="1" gradientUnits="userSpaceOnUse" gradientTransform="translate(613.577 353.02) rotate(-180) scale(8.75999 8.76)">
<stop stop-color="white"/>
<stop offset="0.01" stop-color="#F9F9F9"/>
<stop offset="0.13" stop-color="#BFBFBF"/>
<stop offset="0.25" stop-color="#8C8C8C"/>
<stop offset="0.37" stop-color="#616161"/>
<stop offset="0.5" stop-color="#3E3E3E"/>
<stop offset="0.62" stop-color="#222222"/>
<stop offset="0.74" stop-color="#0F0F0F"/>
<stop offset="0.87" stop-color="#030303"/>
<stop offset="1"/>
</radialGradient>
<radialGradient id="paint25_radial_6476_6720" cx="0" cy="0" r="1" gradientUnits="userSpaceOnUse" gradientTransform="translate(363.264 55.9562) rotate(180) scale(8.76 8.75999)">
<stop stop-color="white"/>
<stop offset="0.01" stop-color="#F9F9F9"/>
<stop offset="0.13" stop-color="#BFBFBF"/>
<stop offset="0.25" stop-color="#8C8C8C"/>
<stop offset="0.37" stop-color="#616161"/>
<stop offset="0.5" stop-color="#3E3E3E"/>
<stop offset="0.62" stop-color="#222222"/>
<stop offset="0.74" stop-color="#0F0F0F"/>
<stop offset="0.87" stop-color="#030303"/>
<stop offset="1"/>
</radialGradient>
<radialGradient id="paint26_radial_6476_6720" cx="0" cy="0" r="1" gradientUnits="userSpaceOnUse" gradientTransform="translate(338.551 55.9704) rotate(-180) scale(8.76 8.76001)">
<stop stop-color="white"/>
<stop offset="0.01" stop-color="#F9F9F9"/>
<stop offset="0.13" stop-color="#BFBFBF"/>
<stop offset="0.25" stop-color="#8C8C8C"/>
<stop offset="0.37" stop-color="#616161"/>
<stop offset="0.5" stop-color="#3E3E3E"/>
<stop offset="0.62" stop-color="#222222"/>
<stop offset="0.74" stop-color="#0F0F0F"/>
<stop offset="0.87" stop-color="#030303"/>
<stop offset="1"/>
</radialGradient>
<radialGradient id="paint27_radial_6476_6720" cx="0" cy="0" r="1" gradientUnits="userSpaceOnUse" gradientTransform="translate(561.13 55.9546) rotate(180) scale(8.76 8.75999)">
<stop stop-color="white"/>
<stop offset="0.01" stop-color="#F9F9F9"/>
<stop offset="0.13" stop-color="#BFBFBF"/>
<stop offset="0.25" stop-color="#8C8C8C"/>
<stop offset="0.37" stop-color="#616161"/>
<stop offset="0.5" stop-color="#3E3E3E"/>
<stop offset="0.62" stop-color="#222222"/>
<stop offset="0.74" stop-color="#0F0F0F"/>
<stop offset="0.87" stop-color="#030303"/>
<stop offset="1"/>
</radialGradient>
<radialGradient id="paint28_radial_6476_6720" cx="0" cy="0" r="1" gradientUnits="userSpaceOnUse" gradientTransform="translate(616.88 91.4499) rotate(180) scale(8.76)">
<stop stop-color="white"/>
<stop offset="0.01" stop-color="#F9F9F9"/>
<stop offset="0.13" stop-color="#BFBFBF"/>
<stop offset="0.25" stop-color="#8C8C8C"/>
<stop offset="0.37" stop-color="#616161"/>
<stop offset="0.5" stop-color="#3E3E3E"/>
<stop offset="0.62" stop-color="#222222"/>
<stop offset="0.74" stop-color="#0F0F0F"/>
<stop offset="0.87" stop-color="#030303"/>
<stop offset="1"/>
</radialGradient>
<radialGradient id="paint29_radial_6476_6720" cx="0" cy="0" r="1" gradientUnits="userSpaceOnUse" gradientTransform="translate(592.68 114.57) rotate(180) scale(8.76)">
<stop stop-color="white"/>
<stop offset="0.01" stop-color="#F9F9F9"/>
<stop offset="0.13" stop-color="#BFBFBF"/>
<stop offset="0.25" stop-color="#8C8C8C"/>
<stop offset="0.37" stop-color="#616161"/>
<stop offset="0.5" stop-color="#3E3E3E"/>
<stop offset="0.62" stop-color="#222222"/>
<stop offset="0.74" stop-color="#0F0F0F"/>
<stop offset="0.87" stop-color="#030303"/>
<stop offset="1"/>
</radialGradient>
<radialGradient id="paint30_radial_6476_6720" cx="0" cy="0" r="1" gradientUnits="userSpaceOnUse" gradientTransform="translate(486.79 130.8) rotate(180) scale(8.76 8.76)">
<stop stop-color="white"/>
<stop offset="0.01" stop-color="#F9F9F9"/>
<stop offset="0.13" stop-color="#BFBFBF"/>
<stop offset="0.25" stop-color="#8C8C8C"/>
<stop offset="0.37" stop-color="#616161"/>
<stop offset="0.5" stop-color="#3E3E3E"/>
<stop offset="0.62" stop-color="#222222"/>
<stop offset="0.74" stop-color="#0F0F0F"/>
<stop offset="0.87" stop-color="#030303"/>
<stop offset="1"/>
</radialGradient>
<radialGradient id="paint31_radial_6476_6720" cx="0" cy="0" r="1" gradientUnits="userSpaceOnUse" gradientTransform="translate(610.32 40.72) rotate(180) scale(8.76 8.76)">
<stop stop-color="white"/>
<stop offset="0.01" stop-color="#F9F9F9"/>
<stop offset="0.13" stop-color="#BFBFBF"/>
<stop offset="0.25" stop-color="#8C8C8C"/>
<stop offset="0.37" stop-color="#616161"/>
<stop offset="0.5" stop-color="#3E3E3E"/>
<stop offset="0.62" stop-color="#222222"/>
<stop offset="0.74" stop-color="#0F0F0F"/>
<stop offset="0.87" stop-color="#030303"/>
<stop offset="1"/>
</radialGradient>
<radialGradient id="paint32_radial_6476_6720" cx="0" cy="0" r="1" gradientUnits="userSpaceOnUse" gradientTransform="translate(533.359 85.0196) rotate(-180) scale(8.76 8.76)">
<stop stop-color="white"/>
<stop offset="0.01" stop-color="#F9F9F9"/>
<stop offset="0.13" stop-color="#BFBFBF"/>
<stop offset="0.25" stop-color="#8C8C8C"/>
<stop offset="0.37" stop-color="#616161"/>
<stop offset="0.5" stop-color="#3E3E3E"/>
<stop offset="0.62" stop-color="#222222"/>
<stop offset="0.74" stop-color="#0F0F0F"/>
<stop offset="0.87" stop-color="#030303"/>
<stop offset="1"/>
</radialGradient>
<radialGradient id="paint33_radial_6476_6720" cx="0" cy="0" r="1" gradientUnits="userSpaceOnUse" gradientTransform="translate(636.81 30.63) rotate(180) scale(8.76)">
<stop stop-color="white"/>
<stop offset="0.01" stop-color="#F9F9F9"/>
<stop offset="0.13" stop-color="#BFBFBF"/>
<stop offset="0.25" stop-color="#8C8C8C"/>
<stop offset="0.37" stop-color="#616161"/>
<stop offset="0.5" stop-color="#3E3E3E"/>
<stop offset="0.62" stop-color="#222222"/>
<stop offset="0.74" stop-color="#0F0F0F"/>
<stop offset="0.87" stop-color="#030303"/>
<stop offset="1"/>
</radialGradient>
<radialGradient id="paint34_radial_6476_6720" cx="0" cy="0" r="1" gradientUnits="userSpaceOnUse" gradientTransform="translate(497.54 173.16) rotate(180) scale(6.77)">
<stop stop-color="white"/>
<stop offset="0.01" stop-color="#F9F9F9"/>
<stop offset="0.13" stop-color="#BFBFBF"/>
<stop offset="0.25" stop-color="#8C8C8C"/>
<stop offset="0.37" stop-color="#616161"/>
<stop offset="0.5" stop-color="#3E3E3E"/>
<stop offset="0.62" stop-color="#222222"/>
<stop offset="0.74" stop-color="#0F0F0F"/>
<stop offset="0.87" stop-color="#030303"/>
<stop offset="1"/>
</radialGradient>
<radialGradient id="paint35_radial_6476_6720" cx="0" cy="0" r="1" gradientUnits="userSpaceOnUse" gradientTransform="translate(484.61 173.16) rotate(180) scale(6.77 6.77)">
<stop stop-color="white"/>
<stop offset="0.01" stop-color="#F9F9F9"/>
<stop offset="0.13" stop-color="#BFBFBF"/>
<stop offset="0.25" stop-color="#8C8C8C"/>
<stop offset="0.37" stop-color="#616161"/>
<stop offset="0.5" stop-color="#3E3E3E"/>
<stop offset="0.62" stop-color="#222222"/>
<stop offset="0.74" stop-color="#0F0F0F"/>
<stop offset="0.87" stop-color="#030303"/>
<stop offset="1"/>
</radialGradient>
<radialGradient id="paint36_radial_6476_6720" cx="0" cy="0" r="1" gradientUnits="userSpaceOnUse" gradientTransform="translate(552.62 103.92) rotate(180) scale(8.76 8.76)">
<stop stop-color="white"/>
<stop offset="0.01" stop-color="#F9F9F9"/>
<stop offset="0.13" stop-color="#BFBFBF"/>
<stop offset="0.25" stop-color="#8C8C8C"/>
<stop offset="0.37" stop-color="#616161"/>
<stop offset="0.5" stop-color="#3E3E3E"/>
<stop offset="0.62" stop-color="#222222"/>
<stop offset="0.74" stop-color="#0F0F0F"/>
<stop offset="0.87" stop-color="#030303"/>
<stop offset="1"/>
</radialGradient>
<radialGradient id="paint37_radial_6476_6720" cx="0" cy="0" r="1" gradientUnits="userSpaceOnUse" gradientTransform="translate(650.17 103.92) rotate(180) scale(8.76)">
<stop stop-color="white"/>
<stop offset="0.01" stop-color="#F9F9F9"/>
<stop offset="0.13" stop-color="#BFBFBF"/>
<stop offset="0.25" stop-color="#8C8C8C"/>
<stop offset="0.37" stop-color="#616161"/>
<stop offset="0.5" stop-color="#3E3E3E"/>
<stop offset="0.62" stop-color="#222222"/>
<stop offset="0.74" stop-color="#0F0F0F"/>
<stop offset="0.87" stop-color="#030303"/>
<stop offset="1"/>
</radialGradient>
<radialGradient id="paint38_radial_6476_6720" cx="0" cy="0" r="1" gradientUnits="userSpaceOnUse" gradientTransform="translate(581.78 294.81) rotate(180) scale(8.76 8.76001)">
<stop stop-color="white"/>
<stop offset="0.01" stop-color="#F9F9F9"/>
<stop offset="0.13" stop-color="#BFBFBF"/>
<stop offset="0.25" stop-color="#8C8C8C"/>
<stop offset="0.37" stop-color="#616161"/>
<stop offset="0.5" stop-color="#3E3E3E"/>
<stop offset="0.62" stop-color="#222222"/>
<stop offset="0.74" stop-color="#0F0F0F"/>
<stop offset="0.87" stop-color="#030303"/>
<stop offset="1"/>
</radialGradient>
<radialGradient id="paint39_radial_6476_6720" cx="0" cy="0" r="1" gradientUnits="userSpaceOnUse" gradientTransform="translate(630.05 294.81) rotate(180) scale(8.76 8.76001)">
<stop stop-color="white"/>
<stop offset="0.01" stop-color="#F9F9F9"/>
<stop offset="0.13" stop-color="#BFBFBF"/>
<stop offset="0.25" stop-color="#8C8C8C"/>
<stop offset="0.37" stop-color="#616161"/>
<stop offset="0.5" stop-color="#3E3E3E"/>
<stop offset="0.62" stop-color="#222222"/>
<stop offset="0.74" stop-color="#0F0F0F"/>
<stop offset="0.87" stop-color="#030303"/>
<stop offset="1"/>
</radialGradient>
<radialGradient id="paint40_radial_6476_6720" cx="0" cy="0" r="1" gradientUnits="userSpaceOnUse" gradientTransform="translate(607.87 294.81) rotate(180) scale(8.76 8.76001)">
<stop stop-color="white"/>
<stop offset="0.01" stop-color="#F9F9F9"/>
<stop offset="0.13" stop-color="#BFBFBF"/>
<stop offset="0.25" stop-color="#8C8C8C"/>
<stop offset="0.37" stop-color="#616161"/>
<stop offset="0.5" stop-color="#3E3E3E"/>
<stop offset="0.62" stop-color="#222222"/>
<stop offset="0.74" stop-color="#0F0F0F"/>
<stop offset="0.87" stop-color="#030303"/>
<stop offset="1"/>
</radialGradient>
<radialGradient id="paint41_radial_6476_6720" cx="0" cy="0" r="1" gradientUnits="userSpaceOnUse" gradientTransform="translate(393.83 198.99) rotate(180) scale(7.21001 7.21)">
<stop stop-color="white"/>
<stop offset="0.01" stop-color="#F9F9F9"/>
<stop offset="0.13" stop-color="#BFBFBF"/>
<stop offset="0.25" stop-color="#8C8C8C"/>
<stop offset="0.37" stop-color="#616161"/>
<stop offset="0.5" stop-color="#3E3E3E"/>
<stop offset="0.62" stop-color="#222222"/>
<stop offset="0.74" stop-color="#0F0F0F"/>
<stop offset="0.87" stop-color="#030303"/>
<stop offset="1"/>
</radialGradient>
<radialGradient id="paint42_radial_6476_6720" cx="0" cy="0" r="1" gradientUnits="userSpaceOnUse" gradientTransform="translate(536.12 31.07) rotate(180) scale(7.21)">
<stop stop-color="white"/>
<stop offset="0.01" stop-color="#F9F9F9"/>
<stop offset="0.13" stop-color="#BFBFBF"/>
<stop offset="0.25" stop-color="#8C8C8C"/>
<stop offset="0.37" stop-color="#616161"/>
<stop offset="0.5" stop-color="#3E3E3E"/>
<stop offset="0.62" stop-color="#222222"/>
<stop offset="0.74" stop-color="#0F0F0F"/>
<stop offset="0.87" stop-color="#030303"/>
<stop offset="1"/>
</radialGradient>
<radialGradient id="paint43_radial_6476_6720" cx="0" cy="0" r="1" gradientUnits="userSpaceOnUse" gradientTransform="translate(333.395 196.763) rotate(-180) scale(12.03 12.03)">
<stop stop-color="white"/>
<stop offset="0.01" stop-color="#F9F9F9"/>
<stop offset="0.13" stop-color="#BFBFBF"/>
<stop offset="0.25" stop-color="#8C8C8C"/>
<stop offset="0.37" stop-color="#616161"/>
<stop offset="0.5" stop-color="#3E3E3E"/>
<stop offset="0.62" stop-color="#222222"/>
<stop offset="0.74" stop-color="#0F0F0F"/>
<stop offset="0.87" stop-color="#030303"/>
<stop offset="1"/>
</radialGradient>
<radialGradient id="paint44_radial_6476_6720" cx="0" cy="0" r="1" gradientUnits="userSpaceOnUse" gradientTransform="translate(356.258 263.124) rotate(180) scale(12.03)">
<stop stop-color="white"/>
<stop offset="0.01" stop-color="#F9F9F9"/>
<stop offset="0.13" stop-color="#BFBFBF"/>
<stop offset="0.25" stop-color="#8C8C8C"/>
<stop offset="0.37" stop-color="#616161"/>
<stop offset="0.5" stop-color="#3E3E3E"/>
<stop offset="0.62" stop-color="#222222"/>
<stop offset="0.74" stop-color="#0F0F0F"/>
<stop offset="0.87" stop-color="#030303"/>
<stop offset="1"/>
</radialGradient>
<radialGradient id="paint45_radial_6476_6720" cx="0" cy="0" r="1" gradientUnits="userSpaceOnUse" gradientTransform="translate(346.244 317.205) rotate(180) scale(12.03)">
<stop stop-color="white"/>
<stop offset="0.01" stop-color="#F9F9F9"/>
<stop offset="0.13" stop-color="#BFBFBF"/>
<stop offset="0.25" stop-color="#8C8C8C"/>
<stop offset="0.37" stop-color="#616161"/>
<stop offset="0.5" stop-color="#3E3E3E"/>
<stop offset="0.62" stop-color="#222222"/>
<stop offset="0.74" stop-color="#0F0F0F"/>
<stop offset="0.87" stop-color="#030303"/>
<stop offset="1"/>
</radialGradient>
<radialGradient id="paint46_radial_6476_6720" cx="0" cy="0" r="1" gradientUnits="userSpaceOnUse" gradientTransform="translate(203.037 393.038) rotate(180) scale(12.03 12.03)">
<stop stop-color="white"/>
<stop offset="0.01" stop-color="#F9F9F9"/>
<stop offset="0.13" stop-color="#BFBFBF"/>
<stop offset="0.25" stop-color="#8C8C8C"/>
<stop offset="0.37" stop-color="#616161"/>
<stop offset="0.5" stop-color="#3E3E3E"/>
<stop offset="0.62" stop-color="#222222"/>
<stop offset="0.74" stop-color="#0F0F0F"/>
<stop offset="0.87" stop-color="#030303"/>
<stop offset="1"/>
</radialGradient>
<radialGradient id="paint47_radial_6476_6720" cx="0" cy="0" r="1" gradientUnits="userSpaceOnUse" gradientTransform="translate(108.835 373.29) rotate(180) scale(12.03)">
<stop stop-color="white"/>
<stop offset="0.01" stop-color="#F9F9F9"/>
<stop offset="0.13" stop-color="#BFBFBF"/>
<stop offset="0.25" stop-color="#8C8C8C"/>
<stop offset="0.37" stop-color="#616161"/>
<stop offset="0.5" stop-color="#3E3E3E"/>
<stop offset="0.62" stop-color="#222222"/>
<stop offset="0.74" stop-color="#0F0F0F"/>
<stop offset="0.87" stop-color="#030303"/>
<stop offset="1"/>
</radialGradient>
<radialGradient id="paint48_radial_6476_6720" cx="0" cy="0" r="1" gradientUnits="userSpaceOnUse" gradientTransform="translate(159.433 389.721) rotate(180) scale(12.03)">
<stop stop-color="white"/>
<stop offset="0.01" stop-color="#F9F9F9"/>
<stop offset="0.13" stop-color="#BFBFBF"/>
<stop offset="0.25" stop-color="#8C8C8C"/>
<stop offset="0.37" stop-color="#616161"/>
<stop offset="0.5" stop-color="#3E3E3E"/>
<stop offset="0.62" stop-color="#222222"/>
<stop offset="0.74" stop-color="#0F0F0F"/>
<stop offset="0.87" stop-color="#030303"/>
<stop offset="1"/>
</radialGradient>
<radialGradient id="paint49_radial_6476_6720" cx="0" cy="0" r="1" gradientUnits="userSpaceOnUse" gradientTransform="translate(180.83 324.02) rotate(180) scale(6.16)">
<stop stop-color="white"/>
<stop offset="0.01" stop-color="#F9F9F9"/>
<stop offset="0.13" stop-color="#BFBFBF"/>
<stop offset="0.25" stop-color="#8C8C8C"/>
<stop offset="0.37" stop-color="#616161"/>
<stop offset="0.5" stop-color="#3E3E3E"/>
<stop offset="0.62" stop-color="#222222"/>
<stop offset="0.74" stop-color="#0F0F0F"/>
<stop offset="0.87" stop-color="#030303"/>
<stop offset="1"/>
</radialGradient>
<radialGradient id="paint50_radial_6476_6720" cx="0" cy="0" r="1" gradientUnits="userSpaceOnUse" gradientTransform="translate(56.7333 309.096) rotate(180) scale(12.03)">
<stop stop-color="white"/>
<stop offset="0.01" stop-color="#F9F9F9"/>
<stop offset="0.13" stop-color="#BFBFBF"/>
<stop offset="0.25" stop-color="#8C8C8C"/>
<stop offset="0.37" stop-color="#616161"/>
<stop offset="0.5" stop-color="#3E3E3E"/>
<stop offset="0.62" stop-color="#222222"/>
<stop offset="0.74" stop-color="#0F0F0F"/>
<stop offset="0.87" stop-color="#030303"/>
<stop offset="1"/>
</radialGradient>
<radialGradient id="paint51_radial_6476_6720" cx="0" cy="0" r="1" gradientUnits="userSpaceOnUse" gradientTransform="translate(270.41 376.776) rotate(180) scale(12.03)">
<stop stop-color="white"/>
<stop offset="0.01" stop-color="#F9F9F9"/>
<stop offset="0.13" stop-color="#BFBFBF"/>
<stop offset="0.25" stop-color="#8C8C8C"/>
<stop offset="0.37" stop-color="#616161"/>
<stop offset="0.5" stop-color="#3E3E3E"/>
<stop offset="0.62" stop-color="#222222"/>
<stop offset="0.74" stop-color="#0F0F0F"/>
<stop offset="0.87" stop-color="#030303"/>
<stop offset="1"/>
</radialGradient>
<radialGradient id="paint52_radial_6476_6720" cx="0" cy="0" r="1" gradientUnits="userSpaceOnUse" gradientTransform="translate(383.71 220.47) rotate(180) scale(8.66)">
<stop stop-color="white"/>
<stop offset="0.01" stop-color="#F9F9F9"/>
<stop offset="0.13" stop-color="#BFBFBF"/>
<stop offset="0.25" stop-color="#8C8C8C"/>
<stop offset="0.37" stop-color="#616161"/>
<stop offset="0.5" stop-color="#3E3E3E"/>
<stop offset="0.62" stop-color="#222222"/>
<stop offset="0.74" stop-color="#0F0F0F"/>
<stop offset="0.87" stop-color="#030303"/>
<stop offset="1"/>
</radialGradient>
<radialGradient id="paint53_radial_6476_6720" cx="0" cy="0" r="1" gradientUnits="userSpaceOnUse" gradientTransform="translate(312.29 170.01) rotate(180) scale(6.09 6.09)">
<stop stop-color="white"/>
<stop offset="0.01" stop-color="#F9F9F9"/>
<stop offset="0.13" stop-color="#BFBFBF"/>
<stop offset="0.25" stop-color="#8C8C8C"/>
<stop offset="0.37" stop-color="#616161"/>
<stop offset="0.5" stop-color="#3E3E3E"/>
<stop offset="0.62" stop-color="#222222"/>
<stop offset="0.74" stop-color="#0F0F0F"/>
<stop offset="0.87" stop-color="#030303"/>
<stop offset="1"/>
</radialGradient>
<radialGradient id="paint54_radial_6476_6720" cx="0" cy="0" r="1" gradientUnits="userSpaceOnUse" gradientTransform="translate(266.13 126.29) rotate(180) scale(6.09 6.09)">
<stop stop-color="white"/>
<stop offset="0.01" stop-color="#F9F9F9"/>
<stop offset="0.13" stop-color="#BFBFBF"/>
<stop offset="0.25" stop-color="#8C8C8C"/>
<stop offset="0.37" stop-color="#616161"/>
<stop offset="0.5" stop-color="#3E3E3E"/>
<stop offset="0.62" stop-color="#222222"/>
<stop offset="0.74" stop-color="#0F0F0F"/>
<stop offset="0.87" stop-color="#030303"/>
<stop offset="1"/>
</radialGradient>
<radialGradient id="paint55_radial_6476_6720" cx="0" cy="0" r="1" gradientUnits="userSpaceOnUse" gradientTransform="translate(265.97 152.34) rotate(180) scale(6.09)">
<stop stop-color="white"/>
<stop offset="0.01" stop-color="#F9F9F9"/>
<stop offset="0.13" stop-color="#BFBFBF"/>
<stop offset="0.25" stop-color="#8C8C8C"/>
<stop offset="0.37" stop-color="#616161"/>
<stop offset="0.5" stop-color="#3E3E3E"/>
<stop offset="0.62" stop-color="#222222"/>
<stop offset="0.74" stop-color="#0F0F0F"/>
<stop offset="0.87" stop-color="#030303"/>
<stop offset="1"/>
</radialGradient>
<radialGradient id="paint56_radial_6476_6720" cx="0" cy="0" r="1" gradientUnits="userSpaceOnUse" gradientTransform="translate(82.42 153.47) rotate(180) scale(6.09)">
<stop stop-color="white"/>
<stop offset="0.01" stop-color="#F9F9F9"/>
<stop offset="0.13" stop-color="#BFBFBF"/>
<stop offset="0.25" stop-color="#8C8C8C"/>
<stop offset="0.37" stop-color="#616161"/>
<stop offset="0.5" stop-color="#3E3E3E"/>
<stop offset="0.62" stop-color="#222222"/>
<stop offset="0.74" stop-color="#0F0F0F"/>
<stop offset="0.87" stop-color="#030303"/>
<stop offset="1"/>
</radialGradient>
<radialGradient id="paint57_radial_6476_6720" cx="0" cy="0" r="1" gradientUnits="userSpaceOnUse" gradientTransform="translate(116.37 132.35) rotate(180) scale(6.09 6.09)">
<stop stop-color="white"/>
<stop offset="0.01" stop-color="#F9F9F9"/>
<stop offset="0.13" stop-color="#BFBFBF"/>
<stop offset="0.25" stop-color="#8C8C8C"/>
<stop offset="0.37" stop-color="#616161"/>
<stop offset="0.5" stop-color="#3E3E3E"/>
<stop offset="0.62" stop-color="#222222"/>
<stop offset="0.74" stop-color="#0F0F0F"/>
<stop offset="0.87" stop-color="#030303"/>
<stop offset="1"/>
</radialGradient>
<radialGradient id="paint58_radial_6476_6720" cx="0" cy="0" r="1" gradientUnits="userSpaceOnUse" gradientTransform="translate(34.6101 271.32) rotate(180) scale(6.09)">
<stop stop-color="white"/>
<stop offset="0.01" stop-color="#F9F9F9"/>
<stop offset="0.13" stop-color="#BFBFBF"/>
<stop offset="0.25" stop-color="#8C8C8C"/>
<stop offset="0.37" stop-color="#616161"/>
<stop offset="0.5" stop-color="#3E3E3E"/>
<stop offset="0.62" stop-color="#222222"/>
<stop offset="0.74" stop-color="#0F0F0F"/>
<stop offset="0.87" stop-color="#030303"/>
<stop offset="1"/>
</radialGradient>
<radialGradient id="paint59_radial_6476_6720" cx="0" cy="0" r="1" gradientUnits="userSpaceOnUse" gradientTransform="translate(98.7701 247.6) rotate(180) scale(6.09 6.09)">
<stop stop-color="white"/>
<stop offset="0.01" stop-color="#F9F9F9"/>
<stop offset="0.13" stop-color="#BFBFBF"/>
<stop offset="0.25" stop-color="#8C8C8C"/>
<stop offset="0.37" stop-color="#616161"/>
<stop offset="0.5" stop-color="#3E3E3E"/>
<stop offset="0.62" stop-color="#222222"/>
<stop offset="0.74" stop-color="#0F0F0F"/>
<stop offset="0.87" stop-color="#030303"/>
<stop offset="1"/>
</radialGradient>
<radialGradient id="paint60_radial_6476_6720" cx="0" cy="0" r="1" gradientUnits="userSpaceOnUse" gradientTransform="translate(42.7901 286.55) rotate(180) scale(6.09 6.09001)">
<stop stop-color="white"/>
<stop offset="0.01" stop-color="#F9F9F9"/>
<stop offset="0.13" stop-color="#BFBFBF"/>
<stop offset="0.25" stop-color="#8C8C8C"/>
<stop offset="0.37" stop-color="#616161"/>
<stop offset="0.5" stop-color="#3E3E3E"/>
<stop offset="0.62" stop-color="#222222"/>
<stop offset="0.74" stop-color="#0F0F0F"/>
<stop offset="0.87" stop-color="#030303"/>
<stop offset="1"/>
</radialGradient>
<radialGradient id="paint61_radial_6476_6720" cx="0" cy="0" r="1" gradientUnits="userSpaceOnUse" gradientTransform="translate(287.24 123.22) rotate(180) scale(6.09 6.09)">
<stop stop-color="white"/>
<stop offset="0.01" stop-color="#F9F9F9"/>
<stop offset="0.13" stop-color="#BFBFBF"/>
<stop offset="0.25" stop-color="#8C8C8C"/>
<stop offset="0.37" stop-color="#616161"/>
<stop offset="0.5" stop-color="#3E3E3E"/>
<stop offset="0.62" stop-color="#222222"/>
<stop offset="0.74" stop-color="#0F0F0F"/>
<stop offset="0.87" stop-color="#030303"/>
<stop offset="1"/>
</radialGradient>
<radialGradient id="paint62_radial_6476_6720" cx="0" cy="0" r="1" gradientUnits="userSpaceOnUse" gradientTransform="translate(249.915 134.014) rotate(-180) scale(7.39)">
<stop stop-color="white"/>
<stop offset="0.01" stop-color="#F9F9F9"/>
<stop offset="0.13" stop-color="#BFBFBF"/>
<stop offset="0.25" stop-color="#8C8C8C"/>
<stop offset="0.37" stop-color="#616161"/>
<stop offset="0.5" stop-color="#3E3E3E"/>
<stop offset="0.62" stop-color="#222222"/>
<stop offset="0.74" stop-color="#0F0F0F"/>
<stop offset="0.87" stop-color="#030303"/>
<stop offset="1"/>
</radialGradient>
<radialGradient id="paint63_radial_6476_6720" cx="0" cy="0" r="1" gradientUnits="userSpaceOnUse" gradientTransform="translate(77.9226 239.882) rotate(180) scale(12.03)">
<stop stop-color="white"/>
<stop offset="0.01" stop-color="#F9F9F9"/>
<stop offset="0.13" stop-color="#BFBFBF"/>
<stop offset="0.25" stop-color="#8C8C8C"/>
<stop offset="0.37" stop-color="#616161"/>
<stop offset="0.5" stop-color="#3E3E3E"/>
<stop offset="0.62" stop-color="#222222"/>
<stop offset="0.74" stop-color="#0F0F0F"/>
<stop offset="0.87" stop-color="#030303"/>
<stop offset="1"/>
</radialGradient>
<radialGradient id="paint64_radial_6476_6720" cx="0" cy="0" r="1" gradientUnits="userSpaceOnUse" gradientTransform="translate(74.5302 178.33) rotate(180) scale(12.03)">
<stop stop-color="white"/>
<stop offset="0.01" stop-color="#F9F9F9"/>
<stop offset="0.13" stop-color="#BFBFBF"/>
<stop offset="0.25" stop-color="#8C8C8C"/>
<stop offset="0.37" stop-color="#616161"/>
<stop offset="0.5" stop-color="#3E3E3E"/>
<stop offset="0.62" stop-color="#222222"/>
<stop offset="0.74" stop-color="#0F0F0F"/>
<stop offset="0.87" stop-color="#030303"/>
<stop offset="1"/>
</radialGradient>
<radialGradient id="paint65_radial_6476_6720" cx="0" cy="0" r="1" gradientUnits="userSpaceOnUse" gradientTransform="translate(32.4084 102.678) rotate(180) scale(12.65 12.65)">
<stop stop-color="white"/>
<stop offset="0.01" stop-color="#F9F9F9"/>
<stop offset="0.13" stop-color="#BFBFBF"/>
<stop offset="0.25" stop-color="#8C8C8C"/>
<stop offset="0.37" stop-color="#616161"/>
<stop offset="0.5" stop-color="#3E3E3E"/>
<stop offset="0.62" stop-color="#222222"/>
<stop offset="0.74" stop-color="#0F0F0F"/>
<stop offset="0.87" stop-color="#030303"/>
<stop offset="1"/>
</radialGradient>
<radialGradient id="paint66_radial_6476_6720" cx="0" cy="0" r="1" gradientUnits="userSpaceOnUse" gradientTransform="translate(185.69 12.65) rotate(180) scale(12.65 12.65)">
<stop stop-color="white"/>
<stop offset="0.01" stop-color="#F9F9F9"/>
<stop offset="0.13" stop-color="#BFBFBF"/>
<stop offset="0.25" stop-color="#8C8C8C"/>
<stop offset="0.37" stop-color="#616161"/>
<stop offset="0.5" stop-color="#3E3E3E"/>
<stop offset="0.62" stop-color="#222222"/>
<stop offset="0.74" stop-color="#0F0F0F"/>
<stop offset="0.87" stop-color="#030303"/>
<stop offset="1"/>
</radialGradient>
<radialGradient id="paint67_radial_6476_6720" cx="0" cy="0" r="1" gradientUnits="userSpaceOnUse" gradientTransform="translate(11.04 150.46) rotate(180) scale(10.95 10.95)">
<stop stop-color="white"/>
<stop offset="0.01" stop-color="#F9F9F9"/>
<stop offset="0.13" stop-color="#BFBFBF"/>
<stop offset="0.25" stop-color="#8C8C8C"/>
<stop offset="0.37" stop-color="#616161"/>
<stop offset="0.5" stop-color="#3E3E3E"/>
<stop offset="0.62" stop-color="#222222"/>
<stop offset="0.74" stop-color="#0F0F0F"/>
<stop offset="0.87" stop-color="#030303"/>
<stop offset="1"/>
</radialGradient>
<radialGradient id="paint68_radial_6476_6720" cx="0" cy="0" r="1" gradientUnits="userSpaceOnUse" gradientTransform="translate(42.6801 317.74) rotate(180) scale(10.95 10.95)">
<stop stop-color="white"/>
<stop offset="0.01" stop-color="#F9F9F9"/>
<stop offset="0.13" stop-color="#BFBFBF"/>
<stop offset="0.25" stop-color="#8C8C8C"/>
<stop offset="0.37" stop-color="#616161"/>
<stop offset="0.5" stop-color="#3E3E3E"/>
<stop offset="0.62" stop-color="#222222"/>
<stop offset="0.74" stop-color="#0F0F0F"/>
<stop offset="0.87" stop-color="#030303"/>
<stop offset="1"/>
</radialGradient>
<radialGradient id="paint69_radial_6476_6720" cx="0" cy="0" r="1" gradientUnits="userSpaceOnUse" gradientTransform="translate(86.31 359.72) rotate(180) scale(10.95)">
<stop stop-color="white"/>
<stop offset="0.01" stop-color="#F9F9F9"/>
<stop offset="0.13" stop-color="#BFBFBF"/>
<stop offset="0.25" stop-color="#8C8C8C"/>
<stop offset="0.37" stop-color="#616161"/>
<stop offset="0.5" stop-color="#3E3E3E"/>
<stop offset="0.62" stop-color="#222222"/>
<stop offset="0.74" stop-color="#0F0F0F"/>
<stop offset="0.87" stop-color="#030303"/>
<stop offset="1"/>
</radialGradient>
<radialGradient id="paint70_radial_6476_6720" cx="0" cy="0" r="1" gradientUnits="userSpaceOnUse" gradientTransform="translate(110.36 291.53) rotate(180) scale(6.85999 6.86)">
<stop stop-color="white"/>
<stop offset="0.01" stop-color="#F9F9F9"/>
<stop offset="0.13" stop-color="#BFBFBF"/>
<stop offset="0.25" stop-color="#8C8C8C"/>
<stop offset="0.37" stop-color="#616161"/>
<stop offset="0.5" stop-color="#3E3E3E"/>
<stop offset="0.62" stop-color="#222222"/>
<stop offset="0.74" stop-color="#0F0F0F"/>
<stop offset="0.87" stop-color="#030303"/>
<stop offset="1"/>
</radialGradient>
<radialGradient id="paint71_radial_6476_6720" cx="0" cy="0" r="1" gradientUnits="userSpaceOnUse" gradientTransform="translate(220.86 49.59) rotate(180) scale(9.06999 9.07)">
<stop stop-color="white"/>
<stop offset="0.01" stop-color="#F9F9F9"/>
<stop offset="0.13" stop-color="#BFBFBF"/>
<stop offset="0.25" stop-color="#8C8C8C"/>
<stop offset="0.37" stop-color="#616161"/>
<stop offset="0.5" stop-color="#3E3E3E"/>
<stop offset="0.62" stop-color="#222222"/>
<stop offset="0.74" stop-color="#0F0F0F"/>
<stop offset="0.87" stop-color="#030303"/>
<stop offset="1"/>
</radialGradient>
<radialGradient id="paint72_radial_6476_6720" cx="0" cy="0" r="1" gradientUnits="userSpaceOnUse" gradientTransform="translate(263.55 25.04) rotate(180) scale(9.06999 9.07)">
<stop stop-color="white"/>
<stop offset="0.01" stop-color="#F9F9F9"/>
<stop offset="0.13" stop-color="#BFBFBF"/>
<stop offset="0.25" stop-color="#8C8C8C"/>
<stop offset="0.37" stop-color="#616161"/>
<stop offset="0.5" stop-color="#3E3E3E"/>
<stop offset="0.62" stop-color="#222222"/>
<stop offset="0.74" stop-color="#0F0F0F"/>
<stop offset="0.87" stop-color="#030303"/>
<stop offset="1"/>
</radialGradient>
<linearGradient id="paint73_linear_6476_6720" x1="361" y1="332" x2="0" y2="332" gradientUnits="userSpaceOnUse">
<stop stop-opacity="0"/>
<stop offset="1"/>
</linearGradient>
<clipPath id="clip0_6476_6720">
<rect width="713.91" height="405.06" fill="white" transform="matrix(-1 0 0 1 714 0)"/>
</clipPath>
</defs>
</svg>
