<svg width="73" height="40" viewBox="0 0 73 40" fill="none" xmlns="http://www.w3.org/2000/svg">
<g clip-path="url(#clip0_8002_528)">
<path d="M-0.0105743 0.00657654H6.94621V10.7513H7.03729C7.76993 9.75921 8.61346 8.99342 9.71176 8.45263C10.7639 7.91184 12.0456 7.59605 13.3274 7.59605C17.7668 7.59605 21.1541 10.6171 21.1541 17.2895V30.1382H14.1974V18.0105C14.1974 15.125 13.1902 13.1408 10.5817 13.1408C8.75075 13.1408 7.67753 14.3132 7.17458 15.575C6.99109 15.9803 6.94621 16.5671 6.94621 17.0632V30.1382H-0.0105743V0.00657654Z" fill="#B30838"/>
<path d="M26.1176 15.4842C26.1176 12.5987 26.0265 10.1645 25.9341 8.21974H31.9761L32.2969 11.1553H32.388C34.0354 8.85527 36.599 7.59342 39.8477 7.59342C44.7452 7.59342 49.1397 11.7855 49.1397 18.8197C49.1397 26.8447 43.9677 30.6316 38.9791 30.6316C36.2782 30.6316 34.1727 29.55 33.1655 28.1066H33.0744V38.3487H26.1163V15.4829L26.1176 15.4842ZM33.0744 20.6684C33.0744 21.2092 33.1206 21.6605 33.2117 22.1105C33.6698 23.9592 35.271 25.3566 37.2854 25.3566C40.3058 25.3566 42.0905 22.8763 42.0905 19.1342C42.0905 15.6184 40.4893 12.9579 37.3765 12.9579C35.4083 12.9579 33.6684 14.4 33.2117 16.4289C33.1206 16.7895 33.0744 17.2408 33.0744 17.6461V20.6671V20.6684Z" fill="#B30838"/>
<path d="M60.9002 2.74606V8.22237H65.9772V13.1487H60.9002V21.1737C60.9002 23.8342 61.584 25.0513 63.6354 25.0513C64.5924 25.0513 65.0492 25.0066 65.6881 24.8711L65.733 30.0566C64.867 30.3724 63.18 30.6421 61.2645 30.6421C59.031 30.6421 57.1604 29.875 56.0212 28.7487C54.7447 27.4421 54.1058 25.3224 54.1058 22.2118V13.15H51.1422V8.22369H54.1058V4.59474L60.9002 2.74606Z" fill="#B30838"/>
<path d="M38.0484 38.3355L39.0953 32.8079H39.7434L39.0794 36.2724H39.0953C39.2127 36.1408 39.3527 36 39.4464 35.8908L40.7823 34.5671H41.5796L39.9309 36.1158L41.0635 38.3342H40.3454L39.4385 36.4737L38.9619 36.9013L38.6887 38.3342H38.0484V38.3355Z" fill="#8E8E8E"/>
<path d="M41.6324 38.3355L42.1407 35.6658C42.2265 35.2461 42.2727 34.8803 42.3202 34.5684H42.8984L42.8047 35.3079H42.8205C43.1571 34.779 43.664 34.4829 44.2185 34.4829C44.6713 34.4829 45.1795 34.7395 45.1795 35.5342C45.1795 35.6974 45.1478 35.9395 45.1095 36.1408L44.6884 38.3355H44.0403L44.4534 36.1632C44.4851 36.0158 44.5089 35.8355 44.5089 35.6803C44.5089 35.2987 44.361 35.0184 43.9162 35.0184C43.4713 35.0184 42.7994 35.5711 42.6278 36.5053L42.2846 38.3342H41.6364L41.6324 38.3355Z" fill="#8E8E8E"/>
<path d="M49.4037 36.0553C49.4037 37.2145 48.576 38.4224 47.3101 38.4224C46.3649 38.4224 45.8342 37.7211 45.8342 36.8724C45.8342 35.6342 46.7015 34.4829 47.9265 34.4829C48.9496 34.4829 49.4024 35.2539 49.4024 36.0553H49.4037ZM46.5061 36.8487C46.5061 37.4632 46.8414 37.9079 47.3972 37.9079C48.1628 37.9079 48.7397 36.9276 48.7397 36.0474C48.7397 35.6118 48.5364 34.996 47.8579 34.996C47.0447 34.996 46.4982 35.9842 46.5061 36.8487Z" fill="#8E8E8E"/>
<path d="M50.6776 34.5684L50.8096 36.6855C50.8413 37.1526 50.8333 37.3947 50.8254 37.6974H50.8492C50.935 37.4566 51.0749 37.129 51.2624 36.7553L52.3871 34.5671H52.9494L53.1844 36.7158C53.224 37.1276 53.2544 37.4474 53.2464 37.6961H53.2623C53.3639 37.3921 53.4735 37.104 53.6213 36.7461L54.6444 34.5658H55.3005L53.4339 38.3342H52.8319L52.5824 36.2868C52.5442 35.9369 52.527 35.6171 52.527 35.2908H52.5112C52.3554 35.6487 52.2458 35.9368 52.0742 36.2711L50.9891 38.3342H50.3872L50.036 34.5658H50.6763L50.6776 34.5684Z" fill="#8E8E8E"/>
<path d="M55.2767 38.3355L56.0041 34.5671H56.6522L55.9262 38.3355H55.278H55.2767ZM56.4872 33.9224C56.2681 33.9224 56.1202 33.7513 56.1202 33.5171C56.1282 33.2684 56.3156 33.0816 56.5493 33.0816C56.7829 33.0816 56.9321 33.2526 56.9321 33.4868C56.9242 33.7434 56.7446 33.9224 56.4951 33.9224H56.4872Z" fill="#8E8E8E"/>
<path d="M57.0416 38.3355L57.5499 35.6658C57.6357 35.2461 57.6819 34.8803 57.7294 34.5684H58.3076L58.2139 35.3079H58.2297C58.565 34.779 59.0732 34.4829 59.6277 34.4829C60.0804 34.4829 60.5887 34.7395 60.5887 35.5342C60.5887 35.6974 60.557 35.9395 60.5187 36.1408L60.0976 38.3355H59.4495L59.864 36.1632C59.8956 36.0158 59.9181 35.8355 59.9181 35.6803C59.9181 35.2987 59.7702 35.0184 59.324 35.0184C58.8779 35.0184 58.2073 35.5711 58.0357 36.5053L57.6924 38.3342H57.0443L57.0416 38.3355Z" fill="#8E8E8E"/>
<path d="M61.2289 39.1921C61.4547 39.3316 61.8296 39.4408 62.2282 39.4408C62.8605 39.4408 63.3608 39.1132 63.5879 38.0934L63.7133 37.5329H63.6895C63.3608 38.0697 62.9001 38.3342 62.3774 38.3342C61.6197 38.3342 61.2302 37.6961 61.2302 37.0263C61.2223 35.75 62.1675 34.4803 63.6275 34.4803C64.0658 34.4803 64.5423 34.6039 64.838 34.7447L64.2598 37.8579C64.104 38.6526 63.8928 39.2053 63.4942 39.5395C63.1193 39.8658 62.6124 39.9592 62.1741 39.9592C61.7134 39.9592 61.283 39.85 61.0415 39.6947L61.2289 39.1882V39.1921ZM64.1265 35.1289C64.009 35.075 63.7753 35.004 63.5021 35.004C62.5569 35.004 61.9088 35.9855 61.9008 36.9197C61.9008 37.3329 62.0487 37.8224 62.6282 37.8224C63.2077 37.8224 63.7529 37.1211 63.8862 36.3816L64.1278 35.1289H64.1265Z" fill="#8E8E8E"/>
<path d="M68.2174 32.9092V38.3355H66.9818V32.9092H68.2174Z" fill="#8E8E8E"/>
<path d="M70.3097 33.9395H68.8484V32.9092H73.0317V33.9395H71.5453V38.3355H70.3097V33.9395Z" fill="#8E8E8E"/>
</g>
<defs>
<clipPath id="clip0_8002_528">
<rect width="73" height="40" fill="white"/>
</clipPath>
</defs>
</svg>
